<?xml version="1.0" encoding="utf-8" standalone="no"?>
<!DOCTYPE svg PUBLIC "-//W3C//DTD SVG 1.1//EN"
  "http://www.w3.org/Graphics/SVG/1.1/DTD/svg11.dtd">
<svg xmlns:xlink="http://www.w3.org/1999/xlink" width="864pt" height="432pt" viewBox="0 0 864 432" xmlns="http://www.w3.org/2000/svg" version="1.1">
 <metadata>
  <rdf:RDF xmlns:dc="http://purl.org/dc/elements/1.1/" xmlns:cc="http://creativecommons.org/ns#" xmlns:rdf="http://www.w3.org/1999/02/22-rdf-syntax-ns#">
   <cc:Work>
    <dc:type rdf:resource="http://purl.org/dc/dcmitype/StillImage"/>
    <dc:date>2023-03-28T16:48:55.812742</dc:date>
    <dc:format>image/svg+xml</dc:format>
    <dc:creator>
     <cc:Agent>
      <dc:title>Matplotlib v3.5.1, https://matplotlib.org/</dc:title>
     </cc:Agent>
    </dc:creator>
   </cc:Work>
  </rdf:RDF>
 </metadata>
 <defs>
  <style type="text/css">*{stroke-linejoin: round; stroke-linecap: butt}</style>
 </defs>
 <g id="figure_1">
  <g id="patch_1">
   <path d="M 0 432 
L 864 432 
L 864 0 
L 0 0 
L 0 432 
z
" style="fill: none"/>
  </g>
  <g id="axes_1">
   <g id="patch_2">
    <path d="M 108 378 
L 777.6 378 
L 777.6 51.84 
L 108 51.84 
z
" style="fill: #ffffff"/>
   </g>
   <g id="matplotlib.axis_1">
    <g id="xtick_1">
     <g id="line2d_1">
      <path d="M 108 378 
L 108 51.84 
" clip-path="url(#pd21f715ae2)" style="fill: none; stroke: #b0b0b0; stroke-width: 0.8; stroke-linecap: square"/>
     </g>
     <g id="line2d_2">
      <defs>
       <path id="me041fa4259" d="M 0 0 
L 0 3.5 
" style="stroke: #000000; stroke-width: 0.8"/>
      </defs>
      <g>
       <use xlink:href="#me041fa4259" x="108" y="378" style="stroke: #000000; stroke-width: 0.8"/>
      </g>
     </g>
     <g id="text_1">
      <!-- 2004 -->
      <g transform="translate(85.96875 400.184375)scale(0.2 -0.2)">
       <defs>
        <path id="MalgunGothic-32" d="M 2519 3372 
Q 2519 3784 2275 4018 
Q 2031 4253 1628 4253 
Q 1341 4253 1053 4104 
Q 766 3956 534 3697 
L 534 4234 
Q 981 4675 1691 4675 
Q 2281 4675 2642 4334 
Q 3003 3994 3003 3416 
Q 3003 2919 2772 2545 
Q 2541 2172 1984 1775 
Q 1459 1406 1254 1215 
Q 1050 1025 967 854 
Q 884 684 884 450 
L 3116 450 
L 3116 0 
L 356 0 
L 356 225 
Q 356 603 461 870 
Q 566 1138 811 1392 
Q 1056 1647 1597 2022 
Q 2091 2363 2305 2670 
Q 2519 2978 2519 3372 
z
" transform="scale(0.015625)"/>
        <path id="MalgunGothic-30" d="M 278 2206 
Q 278 3425 675 4050 
Q 1072 4675 1819 4675 
Q 3253 4675 3253 2319 
Q 3253 1156 2854 539 
Q 2456 -78 1716 -78 
Q 1016 -78 647 520 
Q 278 1119 278 2206 
z
M 784 2231 
Q 784 344 1769 344 
Q 2747 344 2747 2259 
Q 2747 4250 1794 4250 
Q 784 4250 784 2231 
z
" transform="scale(0.015625)"/>
        <path id="MalgunGothic-34" d="M 2703 4600 
L 2703 1563 
L 3309 1563 
L 3309 1113 
L 2703 1113 
L 2703 0 
L 2213 0 
L 2213 1113 
L 50 1113 
L 50 1534 
Q 728 2297 1295 3109 
Q 1863 3922 2172 4600 
L 2703 4600 
z
M 625 1563 
L 2213 1563 
L 2213 3831 
Q 1613 2788 959 1981 
L 625 1563 
z
" transform="scale(0.015625)"/>
       </defs>
       <use xlink:href="#MalgunGothic-32"/>
       <use xlink:href="#MalgunGothic-30" x="55.078125"/>
       <use xlink:href="#MalgunGothic-30" x="110.15625"/>
       <use xlink:href="#MalgunGothic-34" x="165.234375"/>
      </g>
     </g>
    </g>
    <g id="xtick_2">
     <g id="line2d_3">
      <path d="M 149.85 378 
L 149.85 51.84 
" clip-path="url(#pd21f715ae2)" style="fill: none; stroke: #b0b0b0; stroke-width: 0.8; stroke-linecap: square"/>
     </g>
     <g id="line2d_4">
      <g>
       <use xlink:href="#me041fa4259" x="149.85" y="378" style="stroke: #000000; stroke-width: 0.8"/>
      </g>
     </g>
    </g>
    <g id="xtick_3">
     <g id="line2d_5">
      <path d="M 191.7 378 
L 191.7 51.84 
" clip-path="url(#pd21f715ae2)" style="fill: none; stroke: #b0b0b0; stroke-width: 0.8; stroke-linecap: square"/>
     </g>
     <g id="line2d_6">
      <g>
       <use xlink:href="#me041fa4259" x="191.7" y="378" style="stroke: #000000; stroke-width: 0.8"/>
      </g>
     </g>
     <g id="text_2">
      <!-- 2006 -->
      <g transform="translate(169.66875 400.184375)scale(0.2 -0.2)">
       <defs>
        <path id="MalgunGothic-36" d="M 2981 4069 
Q 2619 4250 2228 4250 
Q 1591 4250 1228 3689 
Q 866 3128 869 2213 
L 884 2213 
Q 1203 2872 1938 2872 
Q 2547 2872 2903 2478 
Q 3259 2084 3259 1450 
Q 3259 797 2857 359 
Q 2456 -78 1825 -78 
Q 1116 -78 736 478 
Q 356 1034 356 2019 
Q 356 3181 847 3928 
Q 1338 4675 2222 4675 
Q 2700 4675 2981 4544 
L 2981 4069 
z
M 906 1506 
Q 906 1022 1165 683 
Q 1425 344 1844 344 
Q 2247 344 2498 645 
Q 2750 947 2750 1388 
Q 2750 1888 2509 2167 
Q 2269 2447 1838 2447 
Q 1444 2447 1175 2173 
Q 906 1900 906 1506 
z
" transform="scale(0.015625)"/>
       </defs>
       <use xlink:href="#MalgunGothic-32"/>
       <use xlink:href="#MalgunGothic-30" x="55.078125"/>
       <use xlink:href="#MalgunGothic-30" x="110.15625"/>
       <use xlink:href="#MalgunGothic-36" x="165.234375"/>
      </g>
     </g>
    </g>
    <g id="xtick_4">
     <g id="line2d_7">
      <path d="M 233.55 378 
L 233.55 51.84 
" clip-path="url(#pd21f715ae2)" style="fill: none; stroke: #b0b0b0; stroke-width: 0.8; stroke-linecap: square"/>
     </g>
     <g id="line2d_8">
      <g>
       <use xlink:href="#me041fa4259" x="233.55" y="378" style="stroke: #000000; stroke-width: 0.8"/>
      </g>
     </g>
    </g>
    <g id="xtick_5">
     <g id="line2d_9">
      <path d="M 275.4 378 
L 275.4 51.84 
" clip-path="url(#pd21f715ae2)" style="fill: none; stroke: #b0b0b0; stroke-width: 0.8; stroke-linecap: square"/>
     </g>
     <g id="line2d_10">
      <g>
       <use xlink:href="#me041fa4259" x="275.4" y="378" style="stroke: #000000; stroke-width: 0.8"/>
      </g>
     </g>
     <g id="text_3">
      <!-- 2008 -->
      <g transform="translate(253.36875 400.184375)scale(0.2 -0.2)">
       <defs>
        <path id="MalgunGothic-38" d="M 303 1281 
Q 303 1669 539 2011 
Q 775 2353 1153 2494 
Q 856 2647 675 2915 
Q 494 3184 494 3500 
Q 494 3828 659 4098 
Q 825 4369 1122 4522 
Q 1419 4675 1778 4675 
Q 2334 4675 2700 4342 
Q 3066 4009 3066 3500 
Q 3066 3181 2881 2914 
Q 2697 2647 2413 2494 
Q 2788 2350 3022 2009 
Q 3256 1669 3256 1281 
Q 3256 672 2843 297 
Q 2431 -78 1778 -78 
Q 1131 -78 717 301 
Q 303 681 303 1281 
z
M 809 1328 
Q 809 878 1081 611 
Q 1353 344 1781 344 
Q 2206 344 2482 619 
Q 2759 894 2759 1328 
Q 2759 1731 2482 2011 
Q 2206 2291 1781 2291 
Q 1372 2291 1090 2020 
Q 809 1750 809 1328 
z
M 1003 3459 
Q 1003 3125 1234 2900 
Q 1466 2675 1781 2675 
Q 2097 2675 2330 2900 
Q 2563 3125 2563 3459 
Q 2563 3803 2341 4026 
Q 2119 4250 1781 4250 
Q 1450 4250 1226 4029 
Q 1003 3809 1003 3459 
z
" transform="scale(0.015625)"/>
       </defs>
       <use xlink:href="#MalgunGothic-32"/>
       <use xlink:href="#MalgunGothic-30" x="55.078125"/>
       <use xlink:href="#MalgunGothic-30" x="110.15625"/>
       <use xlink:href="#MalgunGothic-38" x="165.234375"/>
      </g>
     </g>
    </g>
    <g id="xtick_6">
     <g id="line2d_11">
      <path d="M 317.25 378 
L 317.25 51.84 
" clip-path="url(#pd21f715ae2)" style="fill: none; stroke: #b0b0b0; stroke-width: 0.8; stroke-linecap: square"/>
     </g>
     <g id="line2d_12">
      <g>
       <use xlink:href="#me041fa4259" x="317.25" y="378" style="stroke: #000000; stroke-width: 0.8"/>
      </g>
     </g>
    </g>
    <g id="xtick_7">
     <g id="line2d_13">
      <path d="M 359.1 378 
L 359.1 51.84 
" clip-path="url(#pd21f715ae2)" style="fill: none; stroke: #b0b0b0; stroke-width: 0.8; stroke-linecap: square"/>
     </g>
     <g id="line2d_14">
      <g>
       <use xlink:href="#me041fa4259" x="359.1" y="378" style="stroke: #000000; stroke-width: 0.8"/>
      </g>
     </g>
     <g id="text_4">
      <!-- 2010 -->
      <g transform="translate(337.06875 400.184375)scale(0.2 -0.2)">
       <defs>
        <path id="MalgunGothic-31" d="M 2231 0 
L 1734 0 
L 1734 3972 
Q 1591 3828 1266 3661 
Q 941 3494 672 3428 
L 672 3959 
Q 1016 4056 1409 4275 
Q 1803 4494 2031 4700 
L 2231 4700 
L 2231 0 
z
" transform="scale(0.015625)"/>
       </defs>
       <use xlink:href="#MalgunGothic-32"/>
       <use xlink:href="#MalgunGothic-30" x="55.078125"/>
       <use xlink:href="#MalgunGothic-31" x="110.15625"/>
       <use xlink:href="#MalgunGothic-30" x="165.234375"/>
      </g>
     </g>
    </g>
    <g id="xtick_8">
     <g id="line2d_15">
      <path d="M 400.95 378 
L 400.95 51.84 
" clip-path="url(#pd21f715ae2)" style="fill: none; stroke: #b0b0b0; stroke-width: 0.8; stroke-linecap: square"/>
     </g>
     <g id="line2d_16">
      <g>
       <use xlink:href="#me041fa4259" x="400.95" y="378" style="stroke: #000000; stroke-width: 0.8"/>
      </g>
     </g>
    </g>
    <g id="xtick_9">
     <g id="line2d_17">
      <path d="M 442.8 378 
L 442.8 51.84 
" clip-path="url(#pd21f715ae2)" style="fill: none; stroke: #b0b0b0; stroke-width: 0.8; stroke-linecap: square"/>
     </g>
     <g id="line2d_18">
      <g>
       <use xlink:href="#me041fa4259" x="442.8" y="378" style="stroke: #000000; stroke-width: 0.8"/>
      </g>
     </g>
     <g id="text_5">
      <!-- 2012 -->
      <g transform="translate(420.76875 400.184375)scale(0.2 -0.2)">
       <use xlink:href="#MalgunGothic-32"/>
       <use xlink:href="#MalgunGothic-30" x="55.078125"/>
       <use xlink:href="#MalgunGothic-31" x="110.15625"/>
       <use xlink:href="#MalgunGothic-32" x="165.234375"/>
      </g>
     </g>
    </g>
    <g id="xtick_10">
     <g id="line2d_19">
      <path d="M 484.65 378 
L 484.65 51.84 
" clip-path="url(#pd21f715ae2)" style="fill: none; stroke: #b0b0b0; stroke-width: 0.8; stroke-linecap: square"/>
     </g>
     <g id="line2d_20">
      <g>
       <use xlink:href="#me041fa4259" x="484.65" y="378" style="stroke: #000000; stroke-width: 0.8"/>
      </g>
     </g>
    </g>
    <g id="xtick_11">
     <g id="line2d_21">
      <path d="M 526.5 378 
L 526.5 51.84 
" clip-path="url(#pd21f715ae2)" style="fill: none; stroke: #b0b0b0; stroke-width: 0.8; stroke-linecap: square"/>
     </g>
     <g id="line2d_22">
      <g>
       <use xlink:href="#me041fa4259" x="526.5" y="378" style="stroke: #000000; stroke-width: 0.8"/>
      </g>
     </g>
     <g id="text_6">
      <!-- 2014 -->
      <g transform="translate(504.46875 400.184375)scale(0.2 -0.2)">
       <use xlink:href="#MalgunGothic-32"/>
       <use xlink:href="#MalgunGothic-30" x="55.078125"/>
       <use xlink:href="#MalgunGothic-31" x="110.15625"/>
       <use xlink:href="#MalgunGothic-34" x="165.234375"/>
      </g>
     </g>
    </g>
    <g id="xtick_12">
     <g id="line2d_23">
      <path d="M 568.35 378 
L 568.35 51.84 
" clip-path="url(#pd21f715ae2)" style="fill: none; stroke: #b0b0b0; stroke-width: 0.8; stroke-linecap: square"/>
     </g>
     <g id="line2d_24">
      <g>
       <use xlink:href="#me041fa4259" x="568.35" y="378" style="stroke: #000000; stroke-width: 0.8"/>
      </g>
     </g>
    </g>
    <g id="xtick_13">
     <g id="line2d_25">
      <path d="M 610.2 378 
L 610.2 51.84 
" clip-path="url(#pd21f715ae2)" style="fill: none; stroke: #b0b0b0; stroke-width: 0.8; stroke-linecap: square"/>
     </g>
     <g id="line2d_26">
      <g>
       <use xlink:href="#me041fa4259" x="610.2" y="378" style="stroke: #000000; stroke-width: 0.8"/>
      </g>
     </g>
     <g id="text_7">
      <!-- 2016 -->
      <g transform="translate(588.16875 400.184375)scale(0.2 -0.2)">
       <use xlink:href="#MalgunGothic-32"/>
       <use xlink:href="#MalgunGothic-30" x="55.078125"/>
       <use xlink:href="#MalgunGothic-31" x="110.15625"/>
       <use xlink:href="#MalgunGothic-36" x="165.234375"/>
      </g>
     </g>
    </g>
    <g id="xtick_14">
     <g id="line2d_27">
      <path d="M 652.05 378 
L 652.05 51.84 
" clip-path="url(#pd21f715ae2)" style="fill: none; stroke: #b0b0b0; stroke-width: 0.8; stroke-linecap: square"/>
     </g>
     <g id="line2d_28">
      <g>
       <use xlink:href="#me041fa4259" x="652.05" y="378" style="stroke: #000000; stroke-width: 0.8"/>
      </g>
     </g>
    </g>
    <g id="xtick_15">
     <g id="line2d_29">
      <path d="M 693.9 378 
L 693.9 51.84 
" clip-path="url(#pd21f715ae2)" style="fill: none; stroke: #b0b0b0; stroke-width: 0.8; stroke-linecap: square"/>
     </g>
     <g id="line2d_30">
      <g>
       <use xlink:href="#me041fa4259" x="693.9" y="378" style="stroke: #000000; stroke-width: 0.8"/>
      </g>
     </g>
     <g id="text_8">
      <!-- 2018 -->
      <g transform="translate(671.86875 400.184375)scale(0.2 -0.2)">
       <use xlink:href="#MalgunGothic-32"/>
       <use xlink:href="#MalgunGothic-30" x="55.078125"/>
       <use xlink:href="#MalgunGothic-31" x="110.15625"/>
       <use xlink:href="#MalgunGothic-38" x="165.234375"/>
      </g>
     </g>
    </g>
    <g id="xtick_16">
     <g id="line2d_31">
      <path d="M 735.75 378 
L 735.75 51.84 
" clip-path="url(#pd21f715ae2)" style="fill: none; stroke: #b0b0b0; stroke-width: 0.8; stroke-linecap: square"/>
     </g>
     <g id="line2d_32">
      <g>
       <use xlink:href="#me041fa4259" x="735.75" y="378" style="stroke: #000000; stroke-width: 0.8"/>
      </g>
     </g>
    </g>
    <g id="xtick_17">
     <g id="line2d_33">
      <path d="M 777.6 378 
L 777.6 51.84 
" clip-path="url(#pd21f715ae2)" style="fill: none; stroke: #b0b0b0; stroke-width: 0.8; stroke-linecap: square"/>
     </g>
     <g id="line2d_34">
      <g>
       <use xlink:href="#me041fa4259" x="777.6" y="378" style="stroke: #000000; stroke-width: 0.8"/>
      </g>
     </g>
     <g id="text_9">
      <!-- 2020 -->
      <g transform="translate(755.56875 400.184375)scale(0.2 -0.2)">
       <use xlink:href="#MalgunGothic-32"/>
       <use xlink:href="#MalgunGothic-30" x="55.078125"/>
       <use xlink:href="#MalgunGothic-32" x="110.15625"/>
       <use xlink:href="#MalgunGothic-30" x="165.234375"/>
      </g>
     </g>
    </g>
   </g>
   <g id="matplotlib.axis_2">
    <g id="ytick_1">
     <g id="line2d_35">
      <path d="M 108 350.41764 
L 777.6 350.41764 
" clip-path="url(#pd21f715ae2)" style="fill: none; stroke: #b0b0b0; stroke-width: 0.8; stroke-linecap: square"/>
     </g>
     <g id="line2d_36">
      <defs>
       <path id="m03b17097f6" d="M 0 0 
L -3.5 0 
" style="stroke: #000000; stroke-width: 0.8"/>
      </defs>
      <g>
       <use xlink:href="#m03b17097f6" x="108" y="350.41764" style="stroke: #000000; stroke-width: 0.8"/>
      </g>
     </g>
     <g id="text_10">
      <!-- 0.005 -->
      <g transform="translate(52.5625 358.009828)scale(0.2 -0.2)">
       <defs>
        <path id="MalgunGothic-2e" d="M 356 275 
Q 356 422 459 523 
Q 563 625 700 625 
Q 838 625 941 523 
Q 1044 422 1044 275 
Q 1044 138 942 33 
Q 841 -72 700 -72 
Q 559 -72 457 29 
Q 356 131 356 275 
z
" transform="scale(0.015625)"/>
        <path id="MalgunGothic-35" d="M 3072 1403 
Q 3072 722 2636 322 
Q 2200 -78 1469 -78 
Q 828 -78 516 113 
L 516 650 
Q 994 344 1475 344 
Q 1969 344 2270 630 
Q 2572 916 2572 1372 
Q 2572 1838 2265 2092 
Q 1959 2347 1381 2347 
Q 994 2347 603 2300 
L 759 4600 
L 2869 4600 
L 2869 4147 
L 1206 4147 
L 1106 2763 
Q 1347 2784 1547 2784 
Q 2263 2784 2667 2414 
Q 3072 2044 3072 1403 
z
" transform="scale(0.015625)"/>
       </defs>
       <use xlink:href="#MalgunGothic-30"/>
       <use xlink:href="#MalgunGothic-2e" x="55.078125"/>
       <use xlink:href="#MalgunGothic-30" x="76.953125"/>
       <use xlink:href="#MalgunGothic-30" x="132.03125"/>
       <use xlink:href="#MalgunGothic-35" x="187.109375"/>
      </g>
     </g>
    </g>
    <g id="ytick_2">
     <g id="line2d_37">
      <path d="M 108 308.827503 
L 777.6 308.827503 
" clip-path="url(#pd21f715ae2)" style="fill: none; stroke: #b0b0b0; stroke-width: 0.8; stroke-linecap: square"/>
     </g>
     <g id="line2d_38">
      <g>
       <use xlink:href="#m03b17097f6" x="108" y="308.827503" style="stroke: #000000; stroke-width: 0.8"/>
      </g>
     </g>
     <g id="text_11">
      <!-- 0.010 -->
      <g transform="translate(52.5625 316.41969)scale(0.2 -0.2)">
       <use xlink:href="#MalgunGothic-30"/>
       <use xlink:href="#MalgunGothic-2e" x="55.078125"/>
       <use xlink:href="#MalgunGothic-30" x="76.953125"/>
       <use xlink:href="#MalgunGothic-31" x="132.03125"/>
       <use xlink:href="#MalgunGothic-30" x="187.109375"/>
      </g>
     </g>
    </g>
    <g id="ytick_3">
     <g id="line2d_39">
      <path d="M 108 267.237365 
L 777.6 267.237365 
" clip-path="url(#pd21f715ae2)" style="fill: none; stroke: #b0b0b0; stroke-width: 0.8; stroke-linecap: square"/>
     </g>
     <g id="line2d_40">
      <g>
       <use xlink:href="#m03b17097f6" x="108" y="267.237365" style="stroke: #000000; stroke-width: 0.8"/>
      </g>
     </g>
     <g id="text_12">
      <!-- 0.015 -->
      <g transform="translate(52.5625 274.829553)scale(0.2 -0.2)">
       <use xlink:href="#MalgunGothic-30"/>
       <use xlink:href="#MalgunGothic-2e" x="55.078125"/>
       <use xlink:href="#MalgunGothic-30" x="76.953125"/>
       <use xlink:href="#MalgunGothic-31" x="132.03125"/>
       <use xlink:href="#MalgunGothic-35" x="187.109375"/>
      </g>
     </g>
    </g>
    <g id="ytick_4">
     <g id="line2d_41">
      <path d="M 108 225.647227 
L 777.6 225.647227 
" clip-path="url(#pd21f715ae2)" style="fill: none; stroke: #b0b0b0; stroke-width: 0.8; stroke-linecap: square"/>
     </g>
     <g id="line2d_42">
      <g>
       <use xlink:href="#m03b17097f6" x="108" y="225.647227" style="stroke: #000000; stroke-width: 0.8"/>
      </g>
     </g>
     <g id="text_13">
      <!-- 0.020 -->
      <g transform="translate(52.5625 233.239415)scale(0.2 -0.2)">
       <use xlink:href="#MalgunGothic-30"/>
       <use xlink:href="#MalgunGothic-2e" x="55.078125"/>
       <use xlink:href="#MalgunGothic-30" x="76.953125"/>
       <use xlink:href="#MalgunGothic-32" x="132.03125"/>
       <use xlink:href="#MalgunGothic-30" x="187.109375"/>
      </g>
     </g>
    </g>
    <g id="ytick_5">
     <g id="line2d_43">
      <path d="M 108 184.05709 
L 777.6 184.05709 
" clip-path="url(#pd21f715ae2)" style="fill: none; stroke: #b0b0b0; stroke-width: 0.8; stroke-linecap: square"/>
     </g>
     <g id="line2d_44">
      <g>
       <use xlink:href="#m03b17097f6" x="108" y="184.05709" style="stroke: #000000; stroke-width: 0.8"/>
      </g>
     </g>
     <g id="text_14">
      <!-- 0.025 -->
      <g transform="translate(52.5625 191.649277)scale(0.2 -0.2)">
       <use xlink:href="#MalgunGothic-30"/>
       <use xlink:href="#MalgunGothic-2e" x="55.078125"/>
       <use xlink:href="#MalgunGothic-30" x="76.953125"/>
       <use xlink:href="#MalgunGothic-32" x="132.03125"/>
       <use xlink:href="#MalgunGothic-35" x="187.109375"/>
      </g>
     </g>
    </g>
    <g id="ytick_6">
     <g id="line2d_45">
      <path d="M 108 142.466952 
L 777.6 142.466952 
" clip-path="url(#pd21f715ae2)" style="fill: none; stroke: #b0b0b0; stroke-width: 0.8; stroke-linecap: square"/>
     </g>
     <g id="line2d_46">
      <g>
       <use xlink:href="#m03b17097f6" x="108" y="142.466952" style="stroke: #000000; stroke-width: 0.8"/>
      </g>
     </g>
     <g id="text_15">
      <!-- 0.030 -->
      <g transform="translate(52.5625 150.05914)scale(0.2 -0.2)">
       <defs>
        <path id="MalgunGothic-33" d="M 416 719 
Q 891 344 1478 344 
Q 1959 344 2254 587 
Q 2550 831 2550 1247 
Q 2550 2169 1253 2169 
L 872 2169 
L 872 2591 
L 1234 2591 
Q 2388 2591 2388 3453 
Q 2388 4250 1509 4250 
Q 1022 4250 594 3916 
L 594 4413 
Q 1031 4675 1634 4675 
Q 2184 4675 2539 4372 
Q 2894 4069 2894 3581 
Q 2894 2678 1972 2409 
L 1972 2400 
Q 2469 2356 2764 2053 
Q 3059 1750 3059 1300 
Q 3059 672 2604 297 
Q 2150 -78 1450 -78 
Q 806 -78 416 169 
L 416 719 
z
" transform="scale(0.015625)"/>
       </defs>
       <use xlink:href="#MalgunGothic-30"/>
       <use xlink:href="#MalgunGothic-2e" x="55.078125"/>
       <use xlink:href="#MalgunGothic-30" x="76.953125"/>
       <use xlink:href="#MalgunGothic-33" x="132.03125"/>
       <use xlink:href="#MalgunGothic-30" x="187.109375"/>
      </g>
     </g>
    </g>
    <g id="ytick_7">
     <g id="line2d_47">
      <path d="M 108 100.876815 
L 777.6 100.876815 
" clip-path="url(#pd21f715ae2)" style="fill: none; stroke: #b0b0b0; stroke-width: 0.8; stroke-linecap: square"/>
     </g>
     <g id="line2d_48">
      <g>
       <use xlink:href="#m03b17097f6" x="108" y="100.876815" style="stroke: #000000; stroke-width: 0.8"/>
      </g>
     </g>
     <g id="text_16">
      <!-- 0.035 -->
      <g transform="translate(52.5625 108.469002)scale(0.2 -0.2)">
       <use xlink:href="#MalgunGothic-30"/>
       <use xlink:href="#MalgunGothic-2e" x="55.078125"/>
       <use xlink:href="#MalgunGothic-30" x="76.953125"/>
       <use xlink:href="#MalgunGothic-33" x="132.03125"/>
       <use xlink:href="#MalgunGothic-35" x="187.109375"/>
      </g>
     </g>
    </g>
    <g id="ytick_8">
     <g id="line2d_49">
      <path d="M 108 59.286677 
L 777.6 59.286677 
" clip-path="url(#pd21f715ae2)" style="fill: none; stroke: #b0b0b0; stroke-width: 0.8; stroke-linecap: square"/>
     </g>
     <g id="line2d_50">
      <g>
       <use xlink:href="#m03b17097f6" x="108" y="59.286677" style="stroke: #000000; stroke-width: 0.8"/>
      </g>
     </g>
     <g id="text_17">
      <!-- 0.040 -->
      <g transform="translate(52.5625 66.878865)scale(0.2 -0.2)">
       <use xlink:href="#MalgunGothic-30"/>
       <use xlink:href="#MalgunGothic-2e" x="55.078125"/>
       <use xlink:href="#MalgunGothic-30" x="76.953125"/>
       <use xlink:href="#MalgunGothic-34" x="132.03125"/>
       <use xlink:href="#MalgunGothic-30" x="187.109375"/>
      </g>
     </g>
    </g>
    <g id="text_18">
     <!-- Probability -->
     <g transform="translate(43.728125 262.848125)rotate(-90)scale(0.2 -0.2)">
      <defs>
       <path id="MalgunGothic-50" d="M 1113 1747 
L 1113 0 
L 609 0 
L 609 4600 
L 1850 4600 
Q 2575 4600 2979 4240 
Q 3384 3881 3384 3231 
Q 3384 2559 2909 2140 
Q 2434 1722 1728 1747 
L 1113 1747 
z
M 1113 4131 
L 1113 2219 
L 1691 2219 
Q 2256 2219 2554 2475 
Q 2853 2731 2853 3206 
Q 2853 4131 1759 4131 
L 1113 4131 
z
" transform="scale(0.015625)"/>
       <path id="MalgunGothic-72" d="M 2225 2775 
Q 2084 2881 1828 2881 
Q 1491 2881 1262 2553 
Q 1034 2225 1034 1681 
L 1034 0 
L 538 0 
L 538 3284 
L 1034 3284 
L 1034 2603 
L 1047 2603 
Q 1159 2950 1389 3145 
Q 1619 3341 1903 3341 
Q 2109 3341 2225 3297 
L 2225 2775 
z
" transform="scale(0.015625)"/>
       <path id="MalgunGothic-6f" d="M 316 1600 
Q 316 2419 761 2889 
Q 1206 3359 1978 3359 
Q 2697 3359 3111 2907 
Q 3525 2456 3525 1650 
Q 3525 869 3078 395 
Q 2631 -78 1900 -78 
Q 1184 -78 750 384 
Q 316 847 316 1600 
z
M 819 1622 
Q 819 1041 1123 692 
Q 1428 344 1934 344 
Q 2459 344 2739 680 
Q 3019 1016 3019 1634 
Q 3019 2256 2737 2598 
Q 2456 2941 1934 2941 
Q 1425 2941 1122 2587 
Q 819 2234 819 1622 
z
" transform="scale(0.015625)"/>
       <path id="MalgunGothic-62" d="M 1034 481 
L 1034 0 
L 538 0 
L 538 4859 
L 1034 4859 
L 1034 2703 
L 1047 2703 
Q 1438 3359 2184 3359 
Q 2813 3359 3173 2917 
Q 3534 2475 3534 1738 
Q 3534 906 3126 414 
Q 2719 -78 2034 -78 
Q 1384 -78 1047 481 
L 1034 481 
z
M 1034 1334 
Q 1034 922 1307 633 
Q 1581 344 1991 344 
Q 2475 344 2751 716 
Q 3028 1088 3028 1753 
Q 3028 2303 2767 2622 
Q 2506 2941 2072 2941 
Q 1616 2941 1325 2616 
Q 1034 2291 1034 1803 
L 1034 1334 
z
" transform="scale(0.015625)"/>
       <path id="MalgunGothic-61" d="M 616 3050 
Q 1097 3359 1722 3359 
Q 2866 3359 2866 2147 
L 2866 0 
L 2369 0 
L 2369 516 
L 2350 516 
Q 2009 -78 1341 -78 
Q 859 -78 576 180 
Q 294 438 294 869 
Q 294 1784 1375 1934 
L 2366 2078 
Q 2366 2934 1684 2934 
Q 1084 2934 616 2525 
L 616 3050 
z
M 1563 1559 
Q 1178 1509 993 1371 
Q 809 1234 809 903 
Q 809 653 986 500 
Q 1163 347 1450 347 
Q 1847 347 2106 628 
Q 2366 909 2366 1334 
L 2366 1666 
L 1563 1559 
z
" transform="scale(0.015625)"/>
       <path id="MalgunGothic-69" d="M 472 4466 
Q 472 4606 565 4701 
Q 659 4797 794 4797 
Q 934 4797 1029 4700 
Q 1125 4603 1125 4466 
Q 1125 4325 1029 4231 
Q 934 4138 794 4138 
Q 659 4138 565 4230 
Q 472 4322 472 4466 
z
M 541 0 
L 541 3284 
L 1034 3284 
L 1034 0 
L 541 0 
z
" transform="scale(0.015625)"/>
       <path id="MalgunGothic-6c" d="M 541 0 
L 541 4859 
L 1034 4859 
L 1034 0 
L 541 0 
z
" transform="scale(0.015625)"/>
       <path id="MalgunGothic-74" d="M 2031 31 
Q 1844 -72 1553 -72 
Q 706 -72 706 881 
L 706 2856 
L 138 2856 
L 138 3284 
L 706 3284 
L 706 4091 
L 1200 4250 
L 1200 3284 
L 2031 3284 
L 2031 2856 
L 1200 2856 
L 1200 972 
Q 1200 625 1315 487 
Q 1431 350 1691 350 
Q 1888 350 2031 459 
L 2031 31 
z
" transform="scale(0.015625)"/>
       <path id="MalgunGothic-79" d="M 3119 3284 
L 1597 -544 
Q 1197 -1547 481 -1547 
Q 313 -1547 156 -1509 
L 156 -1056 
Q 316 -1109 459 -1109 
Q 859 -1109 1059 -628 
L 1328 6 
L 47 3284 
L 597 3284 
L 1503 722 
Q 1513 697 1572 488 
L 1588 488 
L 1650 716 
L 2603 3284 
L 3119 3284 
z
" transform="scale(0.015625)"/>
      </defs>
      <use xlink:href="#MalgunGothic-50"/>
      <use xlink:href="#MalgunGothic-72" x="57.080078"/>
      <use xlink:href="#MalgunGothic-6f" x="91.056641"/>
      <use xlink:href="#MalgunGothic-62" x="150.96875"/>
      <use xlink:href="#MalgunGothic-61" x="209.652344"/>
      <use xlink:href="#MalgunGothic-62" x="261.654297"/>
      <use xlink:href="#MalgunGothic-69" x="321.712891"/>
      <use xlink:href="#MalgunGothic-6c" x="346.322266"/>
      <use xlink:href="#MalgunGothic-69" x="370.931641"/>
      <use xlink:href="#MalgunGothic-74" x="395.541016"/>
      <use xlink:href="#MalgunGothic-79" x="430.013672"/>
     </g>
    </g>
   </g>
   <g id="line2d_51">
    <path d="M 108 152.885795 
L 149.85 137.442548 
L 191.7 132.175439 
L 233.55 135.572684 
L 275.4 146.122499 
L 317.25 162.313101 
L 359.1 182.632706 
L 400.95 205.56953 
L 442.8 229.61179 
L 484.65 253.247701 
L 526.5 274.965481 
L 568.35 293.253346 
L 610.2 306.599511 
L 652.05 313.492193 
L 693.9 312.419609 
L 735.75 301.869974 
L 777.6 280.331506 
" clip-path="url(#pd21f715ae2)" style="fill: none; stroke: #1f77b4; stroke-width: 4; stroke-linecap: square"/>
   </g>
   <g id="line2d_52">
    <path d="M 108 266.173791 
L 149.85 282.574083 
L 191.7 296.517315 
L 233.55 308.214183 
L 275.4 317.875383 
L 317.25 325.711611 
L 359.1 331.933561 
L 400.95 336.751929 
L 442.8 340.377411 
L 484.65 343.020701 
L 526.5 344.892496 
L 568.35 346.203491 
L 610.2 347.164382 
L 652.05 347.985863 
L 693.9 348.87863 
L 735.75 350.05338 
L 777.6 351.720806 
" clip-path="url(#pd21f715ae2)" style="fill: none; stroke: #ff7f0e; stroke-width: 4; stroke-linecap: square"/>
   </g>
   <g id="line2d_53">
    <path d="M 108 282.516486 
L 149.85 294.829296 
L 191.7 305.309799 
L 233.55 313.979601 
L 275.4 320.86031 
L 317.25 325.97353 
L 359.1 329.340869 
L 400.95 330.983932 
L 442.8 330.924325 
L 484.65 329.183656 
L 526.5 325.783529 
L 568.35 320.745552 
L 610.2 314.09133 
L 652.05 305.84247 
L 693.9 296.020577 
L 735.75 284.647259 
L 777.6 271.744121 
" clip-path="url(#pd21f715ae2)" style="fill: none; stroke: #2ca02c; stroke-width: 4; stroke-linecap: square"/>
   </g>
   <g id="line2d_54">
    <path d="M 108 291.37668 
L 149.85 295.67361 
L 191.7 300.490363 
L 233.55 305.675579 
L 275.4 311.077903 
L 317.25 316.545977 
L 359.1 321.928443 
L 400.95 327.073944 
L 442.8 331.831123 
L 484.65 336.048623 
L 526.5 339.575086 
L 568.35 342.259156 
L 610.2 343.949474 
L 652.05 344.494684 
L 693.9 343.743429 
L 735.75 341.54435 
L 777.6 337.746092 
" clip-path="url(#pd21f715ae2)" style="fill: none; stroke: #d62728; stroke-width: 4; stroke-linecap: square"/>
   </g>
   <g id="line2d_55">
    <path d="M 108 340.735213 
L 149.85 337.932667 
L 191.7 336.50788 
L 233.55 336.284605 
L 275.4 337.086598 
L 317.25 338.73761 
L 359.1 341.061395 
L 400.95 343.881708 
L 442.8 347.022302 
L 484.65 350.306929 
L 526.5 353.559344 
L 568.35 356.603301 
L 610.2 359.262552 
L 652.05 361.360851 
L 693.9 362.721953 
L 735.75 363.16961 
L 777.6 362.527575 
" clip-path="url(#pd21f715ae2)" style="fill: none; stroke: #9467bd; stroke-width: 4; stroke-linecap: square"/>
   </g>
   <g id="line2d_56">
    <path d="M 108 345.278534 
L 149.85 348.559824 
L 191.7 350.307037 
L 233.55 350.752298 
L 275.4 350.12773 
L 317.25 348.665458 
L 359.1 346.597606 
L 400.95 344.156299 
L 442.8 341.573662 
L 484.65 339.081818 
L 526.5 336.912893 
L 568.35 335.29901 
L 610.2 334.472294 
L 652.05 334.66487 
L 693.9 336.108862 
L 735.75 339.036394 
L 777.6 343.679591 
" clip-path="url(#pd21f715ae2)" style="fill: none; stroke: #8c564b; stroke-width: 4; stroke-linecap: square"/>
   </g>
   <g id="line2d_57">
    <path d="M 108 346.331894 
L 149.85 346.551795 
L 191.7 339.571118 
L 233.55 326.50818 
L 275.4 308.481298 
L 317.25 286.608792 
L 359.1 262.008978 
L 400.95 235.800175 
L 442.8 209.1007 
L 484.65 183.028872 
L 526.5 158.703008 
L 568.35 137.241426 
L 610.2 119.762443 
L 652.05 107.384379 
L 693.9 101.225551 
L 735.75 102.404276 
L 777.6 112.038872 
" clip-path="url(#pd21f715ae2)" style="fill: none; stroke: #e377c2; stroke-width: 4; stroke-linecap: square"/>
   </g>
   <g id="line2d_58">
    <path d="M 108 344.559754 
L 149.85 349.853052 
L 191.7 354.380991 
L 233.55 358.180384 
L 275.4 361.288042 
L 317.25 363.740778 
L 359.1 365.575403 
L 400.95 366.828731 
L 442.8 367.537572 
L 484.65 367.738739 
L 526.5 367.469045 
L 568.35 366.765301 
L 610.2 365.664319 
L 652.05 364.202911 
L 693.9 362.41789 
L 735.75 360.346067 
L 777.6 358.024255 
" clip-path="url(#pd21f715ae2)" style="fill: none; stroke: #7f7f7f; stroke-width: 4; stroke-linecap: square"/>
   </g>
   <g id="line2d_59">
    <path d="M 108 360.827865 
L 149.85 344.185647 
L 191.7 330.391564 
L 233.55 319.248031 
L 275.4 310.557462 
L 317.25 304.122272 
L 359.1 299.744877 
L 400.95 297.227691 
L 442.8 296.373131 
L 484.65 296.98361 
L 526.5 298.861545 
L 568.35 301.809349 
L 610.2 305.629439 
L 652.05 310.124228 
L 693.9 315.096133 
L 735.75 320.347569 
L 777.6 325.68095 
" clip-path="url(#pd21f715ae2)" style="fill: none; stroke: #bcbd22; stroke-width: 4; stroke-linecap: square"/>
   </g>
   <g id="line2d_60">
    <path d="M 108 354.408815 
L 149.85 354.129085 
L 191.7 354.2668 
L 233.55 354.752123 
L 275.4 355.515219 
L 317.25 356.486252 
L 359.1 357.595385 
L 400.95 358.772784 
L 442.8 359.948613 
L 484.65 361.053035 
L 526.5 362.016214 
L 568.35 362.768315 
L 610.2 363.239502 
L 652.05 363.359939 
L 693.9 363.059791 
L 735.75 362.26922 
L 777.6 360.918392 
" clip-path="url(#pd21f715ae2)" style="fill: none; stroke: #17becf; stroke-width: 4; stroke-linecap: square"/>
   </g>
   <g id="patch_3">
    <path d="M 108 378 
L 108 51.84 
" style="fill: none; stroke: #000000; stroke-width: 0.8; stroke-linejoin: miter; stroke-linecap: square"/>
   </g>
   <g id="patch_4">
    <path d="M 777.6 378 
L 777.6 51.84 
" style="fill: none; stroke: #000000; stroke-width: 0.8; stroke-linejoin: miter; stroke-linecap: square"/>
   </g>
   <g id="patch_5">
    <path d="M 108 378 
L 777.6 378 
" style="fill: none; stroke: #000000; stroke-width: 0.8; stroke-linejoin: miter; stroke-linecap: square"/>
   </g>
   <g id="patch_6">
    <path d="M 108 51.84 
L 777.6 51.84 
" style="fill: none; stroke: #000000; stroke-width: 0.8; stroke-linejoin: miter; stroke-linecap: square"/>
   </g>
   <g id="legend_1">
    <g id="patch_7">
     <path d="M 120.6 174.11625 
L 538.928437 174.11625 
Q 542.528437 174.11625 542.528437 170.51625 
L 542.528437 64.44 
Q 542.528437 60.84 538.928437 60.84 
L 120.6 60.84 
Q 117 60.84 117 64.44 
L 117 170.51625 
Q 117 174.11625 120.6 174.11625 
z
" style="fill: #ffffff; opacity: 0.7; stroke: #cccccc; stroke-linejoin: miter"/>
    </g>
    <g id="line2d_61">
     <path d="M 124.2 75.405938 
L 142.2 75.405938 
L 160.2 75.405938 
" style="fill: none; stroke: #1f77b4; stroke-width: 4; stroke-linecap: square"/>
    </g>
    <g id="text_19">
     <!-- Tangerine -->
     <g transform="translate(174.6 81.705938)scale(0.18 -0.18)">
      <defs>
       <path id="MalgunGothic-54" d="M 3294 4134 
L 1966 4134 
L 1966 0 
L 1456 0 
L 1456 4134 
L 134 4134 
L 134 4600 
L 3294 4600 
L 3294 4134 
z
" transform="scale(0.015625)"/>
       <path id="MalgunGothic-6e" d="M 3238 0 
L 2741 0 
L 2741 1875 
Q 2741 2941 1963 2941 
Q 1563 2941 1298 2639 
Q 1034 2338 1034 1872 
L 1034 0 
L 538 0 
L 538 3284 
L 1034 3284 
L 1034 2734 
L 1047 2734 
Q 1416 3359 2125 3359 
Q 2666 3359 2952 3012 
Q 3238 2666 3238 2006 
L 3238 0 
z
" transform="scale(0.015625)"/>
       <path id="MalgunGothic-67" d="M 3313 259 
Q 3313 -1547 1603 -1547 
Q 1003 -1547 538 -1313 
L 538 -806 
Q 1088 -1116 1600 -1116 
Q 2822 -1116 2822 194 
L 2822 559 
L 2809 559 
Q 2422 -78 1675 -78 
Q 1066 -78 691 362 
Q 316 803 316 1534 
Q 316 2375 722 2867 
Q 1128 3359 1816 3359 
Q 2484 3359 2809 2822 
L 2822 2822 
L 2822 3284 
L 3313 3284 
L 3313 259 
z
M 2822 1978 
Q 2822 2378 2547 2659 
Q 2272 2941 1878 2941 
Q 1384 2941 1101 2577 
Q 819 2213 819 1572 
Q 819 1016 1092 680 
Q 1366 344 1803 344 
Q 2247 344 2534 666 
Q 2822 988 2822 1478 
L 2822 1978 
z
" transform="scale(0.015625)"/>
       <path id="MalgunGothic-65" d="M 3156 1519 
L 828 1519 
Q 844 950 1133 648 
Q 1422 347 1909 347 
Q 2472 347 2934 719 
L 2934 244 
Q 2494 -78 1794 -78 
Q 1100 -78 708 376 
Q 316 831 316 1634 
Q 316 2381 747 2870 
Q 1178 3359 1816 3359 
Q 2453 3359 2804 2942 
Q 3156 2525 3156 1788 
L 3156 1519 
z
M 2644 1956 
Q 2644 2416 2423 2675 
Q 2203 2934 1809 2934 
Q 1438 2934 1169 2667 
Q 900 2400 834 1956 
L 2644 1956 
z
" transform="scale(0.015625)"/>
      </defs>
      <use xlink:href="#MalgunGothic-54"/>
      <use xlink:href="#MalgunGothic-61" x="41.994141"/>
      <use xlink:href="#MalgunGothic-6e" x="93.996094"/>
      <use xlink:href="#MalgunGothic-67" x="151.808594"/>
      <use xlink:href="#MalgunGothic-65" x="212.013672"/>
      <use xlink:href="#MalgunGothic-72" x="265.529297"/>
      <use xlink:href="#MalgunGothic-69" x="300.880859"/>
      <use xlink:href="#MalgunGothic-6e" x="325.490234"/>
      <use xlink:href="#MalgunGothic-65" x="383.302734"/>
     </g>
    </g>
    <g id="line2d_62">
     <path d="M 124.2 102.422813 
L 142.2 102.422813 
L 160.2 102.422813 
" style="fill: none; stroke: #ff7f0e; stroke-width: 4; stroke-linecap: square"/>
    </g>
    <g id="text_20">
     <!-- People -->
     <g transform="translate(174.6 108.722813)scale(0.18 -0.18)">
      <defs>
       <path id="MalgunGothic-70" d="M 1034 481 
L 1034 -1513 
L 538 -1513 
L 538 3284 
L 1034 3284 
L 1034 2703 
L 1047 2703 
Q 1438 3359 2184 3359 
Q 2809 3359 3171 2920 
Q 3534 2481 3534 1738 
Q 3534 906 3126 414 
Q 2719 -78 2034 -78 
Q 1394 -78 1047 481 
L 1034 481 
z
M 1034 1331 
Q 1034 922 1307 633 
Q 1581 344 1991 344 
Q 2475 344 2751 716 
Q 3028 1088 3028 1753 
Q 3028 2300 2767 2620 
Q 2506 2941 2072 2941 
Q 1619 2941 1326 2619 
Q 1034 2297 1034 1806 
L 1034 1331 
z
" transform="scale(0.015625)"/>
      </defs>
      <use xlink:href="#MalgunGothic-50"/>
      <use xlink:href="#MalgunGothic-65" x="53.080078"/>
      <use xlink:href="#MalgunGothic-6f" x="106.595703"/>
      <use xlink:href="#MalgunGothic-70" x="166.507812"/>
      <use xlink:href="#MalgunGothic-6c" x="226.566406"/>
      <use xlink:href="#MalgunGothic-65" x="251.175781"/>
     </g>
    </g>
    <g id="line2d_63">
     <path d="M 124.2 129.344063 
L 142.2 129.344063 
L 160.2 129.344063 
" style="fill: none; stroke: #2ca02c; stroke-width: 4; stroke-linecap: square"/>
    </g>
    <g id="text_21">
     <!-- Photo -->
     <g transform="translate(174.6 135.644063)scale(0.18 -0.18)">
      <defs>
       <path id="MalgunGothic-68" d="M 3238 0 
L 2744 0 
L 2744 1894 
Q 2744 2941 1963 2941 
Q 1572 2941 1303 2637 
Q 1034 2334 1034 1859 
L 1034 0 
L 538 0 
L 538 4859 
L 1034 4859 
L 1034 2734 
L 1047 2734 
Q 1425 3359 2128 3359 
Q 3238 3359 3238 2022 
L 3238 0 
z
" transform="scale(0.015625)"/>
      </defs>
      <use xlink:href="#MalgunGothic-50"/>
      <use xlink:href="#MalgunGothic-68" x="57.080078"/>
      <use xlink:href="#MalgunGothic-6f" x="114.941406"/>
      <use xlink:href="#MalgunGothic-74" x="174.853516"/>
      <use xlink:href="#MalgunGothic-6f" x="208.451172"/>
     </g>
    </g>
    <g id="line2d_64">
     <path d="M 124.2 156.265312 
L 142.2 156.265312 
L 160.2 156.265312 
" style="fill: none; stroke: #d62728; stroke-width: 4; stroke-linecap: square"/>
    </g>
    <g id="text_22">
     <!-- Thinking -->
     <g transform="translate(174.6 162.565313)scale(0.18 -0.18)">
      <defs>
       <path id="MalgunGothic-6b" d="M 3228 0 
L 2525 0 
L 1047 1575 
L 1034 1575 
L 1034 0 
L 538 0 
L 538 4859 
L 1034 4859 
L 1034 1778 
L 1047 1778 
L 2450 3284 
L 3106 3284 
L 1563 1694 
L 3228 0 
z
" transform="scale(0.015625)"/>
      </defs>
      <use xlink:href="#MalgunGothic-54"/>
      <use xlink:href="#MalgunGothic-68" x="53.369141"/>
      <use xlink:href="#MalgunGothic-69" x="111.230469"/>
      <use xlink:href="#MalgunGothic-6e" x="135.839844"/>
      <use xlink:href="#MalgunGothic-6b" x="193.652344"/>
      <use xlink:href="#MalgunGothic-69" x="244.238281"/>
      <use xlink:href="#MalgunGothic-6e" x="268.847656"/>
      <use xlink:href="#MalgunGothic-67" x="326.660156"/>
     </g>
    </g>
    <g id="line2d_65">
     <path d="M 289.229062 75.405938 
L 307.229062 75.405938 
L 325.229062 75.405938 
" style="fill: none; stroke: #9467bd; stroke-width: 4; stroke-linecap: square"/>
    </g>
    <g id="text_23">
     <!-- Market -->
     <g transform="translate(339.629062 81.705938)scale(0.18 -0.18)">
      <defs>
       <path id="MalgunGothic-4d" d="M 4756 0 
L 4756 3106 
Q 4756 3466 4803 3994 
L 4788 3994 
Q 4713 3684 4653 3559 
L 3050 0 
L 2822 0 
L 1222 3534 
Q 1159 3669 1091 3994 
L 1075 3994 
Q 1100 3822 1100 3116 
L 1100 0 
L 609 0 
L 609 4600 
L 1269 4600 
L 2706 1359 
Q 2881 966 2922 816 
L 2941 816 
Q 2988 944 3166 1375 
L 4638 4600 
L 5259 4600 
L 5259 0 
L 4756 0 
z
" transform="scale(0.015625)"/>
      </defs>
      <use xlink:href="#MalgunGothic-4d"/>
      <use xlink:href="#MalgunGothic-61" x="91.699219"/>
      <use xlink:href="#MalgunGothic-72" x="143.701172"/>
      <use xlink:href="#MalgunGothic-6b" x="179.052734"/>
      <use xlink:href="#MalgunGothic-65" x="227.513672"/>
      <use xlink:href="#MalgunGothic-74" x="281.029297"/>
     </g>
    </g>
    <g id="line2d_66">
     <path d="M 289.229062 102.327187 
L 307.229062 102.327187 
L 325.229062 102.327187 
" style="fill: none; stroke: #8c564b; stroke-width: 4; stroke-linecap: square"/>
    </g>
    <g id="text_24">
     <!-- Travel -->
     <g transform="translate(339.629062 108.627187)scale(0.18 -0.18)">
      <defs>
       <path id="MalgunGothic-76" d="M 3084 3284 
L 1769 0 
L 1294 0 
L 47 3284 
L 594 3284 
L 1441 872 
Q 1531 609 1556 425 
L 1572 425 
Q 1603 669 1672 863 
L 2563 3284 
L 3084 3284 
z
" transform="scale(0.015625)"/>
      </defs>
      <use xlink:href="#MalgunGothic-54"/>
      <use xlink:href="#MalgunGothic-72" x="43.994141"/>
      <use xlink:href="#MalgunGothic-61" x="79.345703"/>
      <use xlink:href="#MalgunGothic-76" x="131.347656"/>
      <use xlink:href="#MalgunGothic-65" x="179.453125"/>
      <use xlink:href="#MalgunGothic-6c" x="232.96875"/>
     </g>
    </g>
    <g id="line2d_67">
     <path d="M 289.229062 129.248437 
L 307.229062 129.248437 
L 325.229062 129.248437 
" style="fill: none; stroke: #e377c2; stroke-width: 4; stroke-linecap: square"/>
    </g>
    <g id="text_25">
     <!-- Cafe -->
     <g transform="translate(339.629062 135.548437)scale(0.18 -0.18)">
      <defs>
       <path id="MalgunGothic-43" d="M 3725 197 
Q 3216 -78 2459 -78 
Q 1488 -78 897 561 
Q 306 1200 306 2213 
Q 306 3281 959 3978 
Q 1613 4675 2644 4675 
Q 3297 4675 3725 4484 
L 3725 3941 
Q 3234 4213 2634 4213 
Q 1813 4213 1325 3659 
Q 838 3106 838 2241 
Q 838 1413 1297 897 
Q 1756 381 2522 381 
Q 3216 381 3725 688 
L 3725 197 
z
" transform="scale(0.015625)"/>
       <path id="MalgunGothic-66" d="M 2128 4422 
Q 1975 4506 1778 4506 
Q 1222 4506 1222 3800 
L 1222 3284 
L 1991 3284 
L 1991 2856 
L 1222 2856 
L 1222 0 
L 734 0 
L 734 2856 
L 172 2856 
L 172 3284 
L 734 3284 
L 734 3825 
Q 734 4341 1026 4636 
Q 1319 4931 1753 4931 
Q 1994 4931 2128 4875 
L 2128 4422 
z
" transform="scale(0.015625)"/>
      </defs>
      <use xlink:href="#MalgunGothic-43"/>
      <use xlink:href="#MalgunGothic-61" x="63.476562"/>
      <use xlink:href="#MalgunGothic-66" x="115.478516"/>
      <use xlink:href="#MalgunGothic-65" x="147.119141"/>
     </g>
    </g>
    <g id="line2d_68">
     <path d="M 432.421875 75.405938 
L 450.421875 75.405938 
L 468.421875 75.405938 
" style="fill: none; stroke: #7f7f7f; stroke-width: 4; stroke-linecap: square"/>
    </g>
    <g id="text_26">
     <!-- Friend -->
     <g transform="translate(482.821875 81.705938)scale(0.18 -0.18)">
      <defs>
       <path id="MalgunGothic-46" d="M 2922 4134 
L 1113 4134 
L 1113 2516 
L 2788 2516 
L 2788 2050 
L 1113 2050 
L 1113 0 
L 609 0 
L 609 4600 
L 2922 4600 
L 2922 4134 
z
" transform="scale(0.015625)"/>
       <path id="MalgunGothic-64" d="M 3313 0 
L 2822 0 
L 2822 566 
L 2809 566 
Q 2444 -78 1675 -78 
Q 1056 -78 686 364 
Q 316 806 316 1566 
Q 316 2375 728 2867 
Q 1141 3359 1816 3359 
Q 2494 3359 2809 2822 
L 2822 2822 
L 2822 4859 
L 3313 4859 
L 3313 0 
z
M 2822 1978 
Q 2822 2378 2550 2659 
Q 2278 2941 1872 2941 
Q 1384 2941 1101 2577 
Q 819 2213 819 1591 
Q 819 1025 1086 684 
Q 1353 344 1813 344 
Q 2250 344 2536 666 
Q 2822 988 2822 1478 
L 2822 1978 
z
" transform="scale(0.015625)"/>
      </defs>
      <use xlink:href="#MalgunGothic-46"/>
      <use xlink:href="#MalgunGothic-72" x="49.853516"/>
      <use xlink:href="#MalgunGothic-69" x="85.205078"/>
      <use xlink:href="#MalgunGothic-65" x="109.814453"/>
      <use xlink:href="#MalgunGothic-6e" x="163.330078"/>
      <use xlink:href="#MalgunGothic-64" x="221.142578"/>
     </g>
    </g>
    <g id="line2d_69">
     <path d="M 432.421875 102.327187 
L 450.421875 102.327187 
L 468.421875 102.327187 
" style="fill: none; stroke: #bcbd22; stroke-width: 4; stroke-linecap: square"/>
    </g>
    <g id="text_27">
     <!-- Coffee -->
     <g transform="translate(482.821875 108.627187)scale(0.18 -0.18)">
      <use xlink:href="#MalgunGothic-43"/>
      <use xlink:href="#MalgunGothic-6f" x="63.476562"/>
      <use xlink:href="#MalgunGothic-66" x="121.388672"/>
      <use xlink:href="#MalgunGothic-66" x="153.029297"/>
      <use xlink:href="#MalgunGothic-65" x="184.669922"/>
      <use xlink:href="#MalgunGothic-65" x="238.185547"/>
     </g>
    </g>
    <g id="line2d_70">
     <path d="M 432.421875 129.248437 
L 450.421875 129.248437 
L 468.421875 129.248437 
" style="fill: none; stroke: #17becf; stroke-width: 4; stroke-linecap: square"/>
    </g>
    <g id="text_28">
     <!-- Mind -->
     <g transform="translate(482.821875 135.548437)scale(0.18 -0.18)">
      <use xlink:href="#MalgunGothic-4d"/>
      <use xlink:href="#MalgunGothic-69" x="91.699219"/>
      <use xlink:href="#MalgunGothic-6e" x="116.308594"/>
      <use xlink:href="#MalgunGothic-64" x="174.121094"/>
     </g>
    </g>
   </g>
  </g>
 </g>
 <defs>
  <clipPath id="pd21f715ae2">
   <rect x="108" y="51.84" width="669.6" height="326.16"/>
  </clipPath>
 </defs>
</svg>
