<?xml version="1.0" encoding="utf-8" standalone="no"?>
<!DOCTYPE svg PUBLIC "-//W3C//DTD SVG 1.1//EN"
  "http://www.w3.org/Graphics/SVG/1.1/DTD/svg11.dtd">
<svg xmlns:xlink="http://www.w3.org/1999/xlink" width="864pt" height="432pt" viewBox="0 0 864 432" xmlns="http://www.w3.org/2000/svg" version="1.1">
 <metadata>
  <rdf:RDF xmlns:dc="http://purl.org/dc/elements/1.1/" xmlns:cc="http://creativecommons.org/ns#" xmlns:rdf="http://www.w3.org/1999/02/22-rdf-syntax-ns#">
   <cc:Work>
    <dc:type rdf:resource="http://purl.org/dc/dcmitype/StillImage"/>
    <dc:date>2023-03-28T16:18:02.557615</dc:date>
    <dc:format>image/svg+xml</dc:format>
    <dc:creator>
     <cc:Agent>
      <dc:title>Matplotlib v3.5.1, https://matplotlib.org/</dc:title>
     </cc:Agent>
    </dc:creator>
   </cc:Work>
  </rdf:RDF>
 </metadata>
 <defs>
  <style type="text/css">*{stroke-linejoin: round; stroke-linecap: butt}</style>
 </defs>
 <g id="figure_1">
  <g id="patch_1">
   <path d="M 0 432 
L 864 432 
L 864 0 
L 0 0 
L 0 432 
z
" style="fill: none"/>
  </g>
  <g id="axes_1">
   <g id="patch_2">
    <path d="M 108 378 
L 777.6 378 
L 777.6 51.84 
L 108 51.84 
z
" style="fill: #ffffff"/>
   </g>
   <g id="matplotlib.axis_1">
    <g id="xtick_1">
     <g id="line2d_1">
      <path d="M 108 378 
L 108 51.84 
" clip-path="url(#p0432646380)" style="fill: none; stroke: #b0b0b0; stroke-width: 0.8; stroke-linecap: square"/>
     </g>
     <g id="line2d_2">
      <defs>
       <path id="m6b5c31c3b7" d="M 0 0 
L 0 3.5 
" style="stroke: #000000; stroke-width: 0.8"/>
      </defs>
      <g>
       <use xlink:href="#m6b5c31c3b7" x="108" y="378" style="stroke: #000000; stroke-width: 0.8"/>
      </g>
     </g>
     <g id="text_1">
      <!-- 2004 -->
      <g transform="translate(85.96875 400.184375)scale(0.2 -0.2)">
       <defs>
        <path id="MalgunGothic-32" d="M 2519 3372 
Q 2519 3784 2275 4018 
Q 2031 4253 1628 4253 
Q 1341 4253 1053 4104 
Q 766 3956 534 3697 
L 534 4234 
Q 981 4675 1691 4675 
Q 2281 4675 2642 4334 
Q 3003 3994 3003 3416 
Q 3003 2919 2772 2545 
Q 2541 2172 1984 1775 
Q 1459 1406 1254 1215 
Q 1050 1025 967 854 
Q 884 684 884 450 
L 3116 450 
L 3116 0 
L 356 0 
L 356 225 
Q 356 603 461 870 
Q 566 1138 811 1392 
Q 1056 1647 1597 2022 
Q 2091 2363 2305 2670 
Q 2519 2978 2519 3372 
z
" transform="scale(0.015625)"/>
        <path id="MalgunGothic-30" d="M 278 2206 
Q 278 3425 675 4050 
Q 1072 4675 1819 4675 
Q 3253 4675 3253 2319 
Q 3253 1156 2854 539 
Q 2456 -78 1716 -78 
Q 1016 -78 647 520 
Q 278 1119 278 2206 
z
M 784 2231 
Q 784 344 1769 344 
Q 2747 344 2747 2259 
Q 2747 4250 1794 4250 
Q 784 4250 784 2231 
z
" transform="scale(0.015625)"/>
        <path id="MalgunGothic-34" d="M 2703 4600 
L 2703 1563 
L 3309 1563 
L 3309 1113 
L 2703 1113 
L 2703 0 
L 2213 0 
L 2213 1113 
L 50 1113 
L 50 1534 
Q 728 2297 1295 3109 
Q 1863 3922 2172 4600 
L 2703 4600 
z
M 625 1563 
L 2213 1563 
L 2213 3831 
Q 1613 2788 959 1981 
L 625 1563 
z
" transform="scale(0.015625)"/>
       </defs>
       <use xlink:href="#MalgunGothic-32"/>
       <use xlink:href="#MalgunGothic-30" x="55.078125"/>
       <use xlink:href="#MalgunGothic-30" x="110.15625"/>
       <use xlink:href="#MalgunGothic-34" x="165.234375"/>
      </g>
     </g>
    </g>
    <g id="xtick_2">
     <g id="line2d_3">
      <path d="M 149.85 378 
L 149.85 51.84 
" clip-path="url(#p0432646380)" style="fill: none; stroke: #b0b0b0; stroke-width: 0.8; stroke-linecap: square"/>
     </g>
     <g id="line2d_4">
      <g>
       <use xlink:href="#m6b5c31c3b7" x="149.85" y="378" style="stroke: #000000; stroke-width: 0.8"/>
      </g>
     </g>
    </g>
    <g id="xtick_3">
     <g id="line2d_5">
      <path d="M 191.7 378 
L 191.7 51.84 
" clip-path="url(#p0432646380)" style="fill: none; stroke: #b0b0b0; stroke-width: 0.8; stroke-linecap: square"/>
     </g>
     <g id="line2d_6">
      <g>
       <use xlink:href="#m6b5c31c3b7" x="191.7" y="378" style="stroke: #000000; stroke-width: 0.8"/>
      </g>
     </g>
     <g id="text_2">
      <!-- 2006 -->
      <g transform="translate(169.66875 400.184375)scale(0.2 -0.2)">
       <defs>
        <path id="MalgunGothic-36" d="M 2981 4069 
Q 2619 4250 2228 4250 
Q 1591 4250 1228 3689 
Q 866 3128 869 2213 
L 884 2213 
Q 1203 2872 1938 2872 
Q 2547 2872 2903 2478 
Q 3259 2084 3259 1450 
Q 3259 797 2857 359 
Q 2456 -78 1825 -78 
Q 1116 -78 736 478 
Q 356 1034 356 2019 
Q 356 3181 847 3928 
Q 1338 4675 2222 4675 
Q 2700 4675 2981 4544 
L 2981 4069 
z
M 906 1506 
Q 906 1022 1165 683 
Q 1425 344 1844 344 
Q 2247 344 2498 645 
Q 2750 947 2750 1388 
Q 2750 1888 2509 2167 
Q 2269 2447 1838 2447 
Q 1444 2447 1175 2173 
Q 906 1900 906 1506 
z
" transform="scale(0.015625)"/>
       </defs>
       <use xlink:href="#MalgunGothic-32"/>
       <use xlink:href="#MalgunGothic-30" x="55.078125"/>
       <use xlink:href="#MalgunGothic-30" x="110.15625"/>
       <use xlink:href="#MalgunGothic-36" x="165.234375"/>
      </g>
     </g>
    </g>
    <g id="xtick_4">
     <g id="line2d_7">
      <path d="M 233.55 378 
L 233.55 51.84 
" clip-path="url(#p0432646380)" style="fill: none; stroke: #b0b0b0; stroke-width: 0.8; stroke-linecap: square"/>
     </g>
     <g id="line2d_8">
      <g>
       <use xlink:href="#m6b5c31c3b7" x="233.55" y="378" style="stroke: #000000; stroke-width: 0.8"/>
      </g>
     </g>
    </g>
    <g id="xtick_5">
     <g id="line2d_9">
      <path d="M 275.4 378 
L 275.4 51.84 
" clip-path="url(#p0432646380)" style="fill: none; stroke: #b0b0b0; stroke-width: 0.8; stroke-linecap: square"/>
     </g>
     <g id="line2d_10">
      <g>
       <use xlink:href="#m6b5c31c3b7" x="275.4" y="378" style="stroke: #000000; stroke-width: 0.8"/>
      </g>
     </g>
     <g id="text_3">
      <!-- 2008 -->
      <g transform="translate(253.36875 400.184375)scale(0.2 -0.2)">
       <defs>
        <path id="MalgunGothic-38" d="M 303 1281 
Q 303 1669 539 2011 
Q 775 2353 1153 2494 
Q 856 2647 675 2915 
Q 494 3184 494 3500 
Q 494 3828 659 4098 
Q 825 4369 1122 4522 
Q 1419 4675 1778 4675 
Q 2334 4675 2700 4342 
Q 3066 4009 3066 3500 
Q 3066 3181 2881 2914 
Q 2697 2647 2413 2494 
Q 2788 2350 3022 2009 
Q 3256 1669 3256 1281 
Q 3256 672 2843 297 
Q 2431 -78 1778 -78 
Q 1131 -78 717 301 
Q 303 681 303 1281 
z
M 809 1328 
Q 809 878 1081 611 
Q 1353 344 1781 344 
Q 2206 344 2482 619 
Q 2759 894 2759 1328 
Q 2759 1731 2482 2011 
Q 2206 2291 1781 2291 
Q 1372 2291 1090 2020 
Q 809 1750 809 1328 
z
M 1003 3459 
Q 1003 3125 1234 2900 
Q 1466 2675 1781 2675 
Q 2097 2675 2330 2900 
Q 2563 3125 2563 3459 
Q 2563 3803 2341 4026 
Q 2119 4250 1781 4250 
Q 1450 4250 1226 4029 
Q 1003 3809 1003 3459 
z
" transform="scale(0.015625)"/>
       </defs>
       <use xlink:href="#MalgunGothic-32"/>
       <use xlink:href="#MalgunGothic-30" x="55.078125"/>
       <use xlink:href="#MalgunGothic-30" x="110.15625"/>
       <use xlink:href="#MalgunGothic-38" x="165.234375"/>
      </g>
     </g>
    </g>
    <g id="xtick_6">
     <g id="line2d_11">
      <path d="M 317.25 378 
L 317.25 51.84 
" clip-path="url(#p0432646380)" style="fill: none; stroke: #b0b0b0; stroke-width: 0.8; stroke-linecap: square"/>
     </g>
     <g id="line2d_12">
      <g>
       <use xlink:href="#m6b5c31c3b7" x="317.25" y="378" style="stroke: #000000; stroke-width: 0.8"/>
      </g>
     </g>
    </g>
    <g id="xtick_7">
     <g id="line2d_13">
      <path d="M 359.1 378 
L 359.1 51.84 
" clip-path="url(#p0432646380)" style="fill: none; stroke: #b0b0b0; stroke-width: 0.8; stroke-linecap: square"/>
     </g>
     <g id="line2d_14">
      <g>
       <use xlink:href="#m6b5c31c3b7" x="359.1" y="378" style="stroke: #000000; stroke-width: 0.8"/>
      </g>
     </g>
     <g id="text_4">
      <!-- 2010 -->
      <g transform="translate(337.06875 400.184375)scale(0.2 -0.2)">
       <defs>
        <path id="MalgunGothic-31" d="M 2231 0 
L 1734 0 
L 1734 3972 
Q 1591 3828 1266 3661 
Q 941 3494 672 3428 
L 672 3959 
Q 1016 4056 1409 4275 
Q 1803 4494 2031 4700 
L 2231 4700 
L 2231 0 
z
" transform="scale(0.015625)"/>
       </defs>
       <use xlink:href="#MalgunGothic-32"/>
       <use xlink:href="#MalgunGothic-30" x="55.078125"/>
       <use xlink:href="#MalgunGothic-31" x="110.15625"/>
       <use xlink:href="#MalgunGothic-30" x="165.234375"/>
      </g>
     </g>
    </g>
    <g id="xtick_8">
     <g id="line2d_15">
      <path d="M 400.95 378 
L 400.95 51.84 
" clip-path="url(#p0432646380)" style="fill: none; stroke: #b0b0b0; stroke-width: 0.8; stroke-linecap: square"/>
     </g>
     <g id="line2d_16">
      <g>
       <use xlink:href="#m6b5c31c3b7" x="400.95" y="378" style="stroke: #000000; stroke-width: 0.8"/>
      </g>
     </g>
    </g>
    <g id="xtick_9">
     <g id="line2d_17">
      <path d="M 442.8 378 
L 442.8 51.84 
" clip-path="url(#p0432646380)" style="fill: none; stroke: #b0b0b0; stroke-width: 0.8; stroke-linecap: square"/>
     </g>
     <g id="line2d_18">
      <g>
       <use xlink:href="#m6b5c31c3b7" x="442.8" y="378" style="stroke: #000000; stroke-width: 0.8"/>
      </g>
     </g>
     <g id="text_5">
      <!-- 2012 -->
      <g transform="translate(420.76875 400.184375)scale(0.2 -0.2)">
       <use xlink:href="#MalgunGothic-32"/>
       <use xlink:href="#MalgunGothic-30" x="55.078125"/>
       <use xlink:href="#MalgunGothic-31" x="110.15625"/>
       <use xlink:href="#MalgunGothic-32" x="165.234375"/>
      </g>
     </g>
    </g>
    <g id="xtick_10">
     <g id="line2d_19">
      <path d="M 484.65 378 
L 484.65 51.84 
" clip-path="url(#p0432646380)" style="fill: none; stroke: #b0b0b0; stroke-width: 0.8; stroke-linecap: square"/>
     </g>
     <g id="line2d_20">
      <g>
       <use xlink:href="#m6b5c31c3b7" x="484.65" y="378" style="stroke: #000000; stroke-width: 0.8"/>
      </g>
     </g>
    </g>
    <g id="xtick_11">
     <g id="line2d_21">
      <path d="M 526.5 378 
L 526.5 51.84 
" clip-path="url(#p0432646380)" style="fill: none; stroke: #b0b0b0; stroke-width: 0.8; stroke-linecap: square"/>
     </g>
     <g id="line2d_22">
      <g>
       <use xlink:href="#m6b5c31c3b7" x="526.5" y="378" style="stroke: #000000; stroke-width: 0.8"/>
      </g>
     </g>
     <g id="text_6">
      <!-- 2014 -->
      <g transform="translate(504.46875 400.184375)scale(0.2 -0.2)">
       <use xlink:href="#MalgunGothic-32"/>
       <use xlink:href="#MalgunGothic-30" x="55.078125"/>
       <use xlink:href="#MalgunGothic-31" x="110.15625"/>
       <use xlink:href="#MalgunGothic-34" x="165.234375"/>
      </g>
     </g>
    </g>
    <g id="xtick_12">
     <g id="line2d_23">
      <path d="M 568.35 378 
L 568.35 51.84 
" clip-path="url(#p0432646380)" style="fill: none; stroke: #b0b0b0; stroke-width: 0.8; stroke-linecap: square"/>
     </g>
     <g id="line2d_24">
      <g>
       <use xlink:href="#m6b5c31c3b7" x="568.35" y="378" style="stroke: #000000; stroke-width: 0.8"/>
      </g>
     </g>
    </g>
    <g id="xtick_13">
     <g id="line2d_25">
      <path d="M 610.2 378 
L 610.2 51.84 
" clip-path="url(#p0432646380)" style="fill: none; stroke: #b0b0b0; stroke-width: 0.8; stroke-linecap: square"/>
     </g>
     <g id="line2d_26">
      <g>
       <use xlink:href="#m6b5c31c3b7" x="610.2" y="378" style="stroke: #000000; stroke-width: 0.8"/>
      </g>
     </g>
     <g id="text_7">
      <!-- 2016 -->
      <g transform="translate(588.16875 400.184375)scale(0.2 -0.2)">
       <use xlink:href="#MalgunGothic-32"/>
       <use xlink:href="#MalgunGothic-30" x="55.078125"/>
       <use xlink:href="#MalgunGothic-31" x="110.15625"/>
       <use xlink:href="#MalgunGothic-36" x="165.234375"/>
      </g>
     </g>
    </g>
    <g id="xtick_14">
     <g id="line2d_27">
      <path d="M 652.05 378 
L 652.05 51.84 
" clip-path="url(#p0432646380)" style="fill: none; stroke: #b0b0b0; stroke-width: 0.8; stroke-linecap: square"/>
     </g>
     <g id="line2d_28">
      <g>
       <use xlink:href="#m6b5c31c3b7" x="652.05" y="378" style="stroke: #000000; stroke-width: 0.8"/>
      </g>
     </g>
    </g>
    <g id="xtick_15">
     <g id="line2d_29">
      <path d="M 693.9 378 
L 693.9 51.84 
" clip-path="url(#p0432646380)" style="fill: none; stroke: #b0b0b0; stroke-width: 0.8; stroke-linecap: square"/>
     </g>
     <g id="line2d_30">
      <g>
       <use xlink:href="#m6b5c31c3b7" x="693.9" y="378" style="stroke: #000000; stroke-width: 0.8"/>
      </g>
     </g>
     <g id="text_8">
      <!-- 2018 -->
      <g transform="translate(671.86875 400.184375)scale(0.2 -0.2)">
       <use xlink:href="#MalgunGothic-32"/>
       <use xlink:href="#MalgunGothic-30" x="55.078125"/>
       <use xlink:href="#MalgunGothic-31" x="110.15625"/>
       <use xlink:href="#MalgunGothic-38" x="165.234375"/>
      </g>
     </g>
    </g>
    <g id="xtick_16">
     <g id="line2d_31">
      <path d="M 735.75 378 
L 735.75 51.84 
" clip-path="url(#p0432646380)" style="fill: none; stroke: #b0b0b0; stroke-width: 0.8; stroke-linecap: square"/>
     </g>
     <g id="line2d_32">
      <g>
       <use xlink:href="#m6b5c31c3b7" x="735.75" y="378" style="stroke: #000000; stroke-width: 0.8"/>
      </g>
     </g>
    </g>
    <g id="xtick_17">
     <g id="line2d_33">
      <path d="M 777.6 378 
L 777.6 51.84 
" clip-path="url(#p0432646380)" style="fill: none; stroke: #b0b0b0; stroke-width: 0.8; stroke-linecap: square"/>
     </g>
     <g id="line2d_34">
      <g>
       <use xlink:href="#m6b5c31c3b7" x="777.6" y="378" style="stroke: #000000; stroke-width: 0.8"/>
      </g>
     </g>
     <g id="text_9">
      <!-- 2020 -->
      <g transform="translate(755.56875 400.184375)scale(0.2 -0.2)">
       <use xlink:href="#MalgunGothic-32"/>
       <use xlink:href="#MalgunGothic-30" x="55.078125"/>
       <use xlink:href="#MalgunGothic-32" x="110.15625"/>
       <use xlink:href="#MalgunGothic-30" x="165.234375"/>
      </g>
     </g>
    </g>
   </g>
   <g id="matplotlib.axis_2">
    <g id="ytick_1">
     <g id="line2d_35">
      <path d="M 108 329.970411 
L 777.6 329.970411 
" clip-path="url(#p0432646380)" style="fill: none; stroke: #b0b0b0; stroke-width: 0.8; stroke-linecap: square"/>
     </g>
     <g id="line2d_36">
      <defs>
       <path id="m6899455402" d="M 0 0 
L -3.5 0 
" style="stroke: #000000; stroke-width: 0.8"/>
      </defs>
      <g>
       <use xlink:href="#m6899455402" x="108" y="329.970411" style="stroke: #000000; stroke-width: 0.8"/>
      </g>
     </g>
     <g id="text_10">
      <!-- 0.005 -->
      <g transform="translate(52.5625 337.562599)scale(0.2 -0.2)">
       <defs>
        <path id="MalgunGothic-2e" d="M 356 275 
Q 356 422 459 523 
Q 563 625 700 625 
Q 838 625 941 523 
Q 1044 422 1044 275 
Q 1044 138 942 33 
Q 841 -72 700 -72 
Q 559 -72 457 29 
Q 356 131 356 275 
z
" transform="scale(0.015625)"/>
        <path id="MalgunGothic-35" d="M 3072 1403 
Q 3072 722 2636 322 
Q 2200 -78 1469 -78 
Q 828 -78 516 113 
L 516 650 
Q 994 344 1475 344 
Q 1969 344 2270 630 
Q 2572 916 2572 1372 
Q 2572 1838 2265 2092 
Q 1959 2347 1381 2347 
Q 994 2347 603 2300 
L 759 4600 
L 2869 4600 
L 2869 4147 
L 1206 4147 
L 1106 2763 
Q 1347 2784 1547 2784 
Q 2263 2784 2667 2414 
Q 3072 2044 3072 1403 
z
" transform="scale(0.015625)"/>
       </defs>
       <use xlink:href="#MalgunGothic-30"/>
       <use xlink:href="#MalgunGothic-2e" x="55.078125"/>
       <use xlink:href="#MalgunGothic-30" x="76.953125"/>
       <use xlink:href="#MalgunGothic-30" x="132.03125"/>
       <use xlink:href="#MalgunGothic-35" x="187.109375"/>
      </g>
     </g>
    </g>
    <g id="ytick_2">
     <g id="line2d_37">
      <path d="M 108 271.333962 
L 777.6 271.333962 
" clip-path="url(#p0432646380)" style="fill: none; stroke: #b0b0b0; stroke-width: 0.8; stroke-linecap: square"/>
     </g>
     <g id="line2d_38">
      <g>
       <use xlink:href="#m6899455402" x="108" y="271.333962" style="stroke: #000000; stroke-width: 0.8"/>
      </g>
     </g>
     <g id="text_11">
      <!-- 0.010 -->
      <g transform="translate(52.5625 278.92615)scale(0.2 -0.2)">
       <use xlink:href="#MalgunGothic-30"/>
       <use xlink:href="#MalgunGothic-2e" x="55.078125"/>
       <use xlink:href="#MalgunGothic-30" x="76.953125"/>
       <use xlink:href="#MalgunGothic-31" x="132.03125"/>
       <use xlink:href="#MalgunGothic-30" x="187.109375"/>
      </g>
     </g>
    </g>
    <g id="ytick_3">
     <g id="line2d_39">
      <path d="M 108 212.697513 
L 777.6 212.697513 
" clip-path="url(#p0432646380)" style="fill: none; stroke: #b0b0b0; stroke-width: 0.8; stroke-linecap: square"/>
     </g>
     <g id="line2d_40">
      <g>
       <use xlink:href="#m6899455402" x="108" y="212.697513" style="stroke: #000000; stroke-width: 0.8"/>
      </g>
     </g>
     <g id="text_12">
      <!-- 0.015 -->
      <g transform="translate(52.5625 220.2897)scale(0.2 -0.2)">
       <use xlink:href="#MalgunGothic-30"/>
       <use xlink:href="#MalgunGothic-2e" x="55.078125"/>
       <use xlink:href="#MalgunGothic-30" x="76.953125"/>
       <use xlink:href="#MalgunGothic-31" x="132.03125"/>
       <use xlink:href="#MalgunGothic-35" x="187.109375"/>
      </g>
     </g>
    </g>
    <g id="ytick_4">
     <g id="line2d_41">
      <path d="M 108 154.061063 
L 777.6 154.061063 
" clip-path="url(#p0432646380)" style="fill: none; stroke: #b0b0b0; stroke-width: 0.8; stroke-linecap: square"/>
     </g>
     <g id="line2d_42">
      <g>
       <use xlink:href="#m6899455402" x="108" y="154.061063" style="stroke: #000000; stroke-width: 0.8"/>
      </g>
     </g>
     <g id="text_13">
      <!-- 0.020 -->
      <g transform="translate(52.5625 161.653251)scale(0.2 -0.2)">
       <use xlink:href="#MalgunGothic-30"/>
       <use xlink:href="#MalgunGothic-2e" x="55.078125"/>
       <use xlink:href="#MalgunGothic-30" x="76.953125"/>
       <use xlink:href="#MalgunGothic-32" x="132.03125"/>
       <use xlink:href="#MalgunGothic-30" x="187.109375"/>
      </g>
     </g>
    </g>
    <g id="ytick_5">
     <g id="line2d_43">
      <path d="M 108 95.424614 
L 777.6 95.424614 
" clip-path="url(#p0432646380)" style="fill: none; stroke: #b0b0b0; stroke-width: 0.8; stroke-linecap: square"/>
     </g>
     <g id="line2d_44">
      <g>
       <use xlink:href="#m6899455402" x="108" y="95.424614" style="stroke: #000000; stroke-width: 0.8"/>
      </g>
     </g>
     <g id="text_14">
      <!-- 0.025 -->
      <g transform="translate(52.5625 103.016802)scale(0.2 -0.2)">
       <use xlink:href="#MalgunGothic-30"/>
       <use xlink:href="#MalgunGothic-2e" x="55.078125"/>
       <use xlink:href="#MalgunGothic-30" x="76.953125"/>
       <use xlink:href="#MalgunGothic-32" x="132.03125"/>
       <use xlink:href="#MalgunGothic-35" x="187.109375"/>
      </g>
     </g>
    </g>
    <g id="text_15">
     <!-- Probability -->
     <g transform="translate(43.728125 262.848125)rotate(-90)scale(0.2 -0.2)">
      <defs>
       <path id="MalgunGothic-50" d="M 1113 1747 
L 1113 0 
L 609 0 
L 609 4600 
L 1850 4600 
Q 2575 4600 2979 4240 
Q 3384 3881 3384 3231 
Q 3384 2559 2909 2140 
Q 2434 1722 1728 1747 
L 1113 1747 
z
M 1113 4131 
L 1113 2219 
L 1691 2219 
Q 2256 2219 2554 2475 
Q 2853 2731 2853 3206 
Q 2853 4131 1759 4131 
L 1113 4131 
z
" transform="scale(0.015625)"/>
       <path id="MalgunGothic-72" d="M 2225 2775 
Q 2084 2881 1828 2881 
Q 1491 2881 1262 2553 
Q 1034 2225 1034 1681 
L 1034 0 
L 538 0 
L 538 3284 
L 1034 3284 
L 1034 2603 
L 1047 2603 
Q 1159 2950 1389 3145 
Q 1619 3341 1903 3341 
Q 2109 3341 2225 3297 
L 2225 2775 
z
" transform="scale(0.015625)"/>
       <path id="MalgunGothic-6f" d="M 316 1600 
Q 316 2419 761 2889 
Q 1206 3359 1978 3359 
Q 2697 3359 3111 2907 
Q 3525 2456 3525 1650 
Q 3525 869 3078 395 
Q 2631 -78 1900 -78 
Q 1184 -78 750 384 
Q 316 847 316 1600 
z
M 819 1622 
Q 819 1041 1123 692 
Q 1428 344 1934 344 
Q 2459 344 2739 680 
Q 3019 1016 3019 1634 
Q 3019 2256 2737 2598 
Q 2456 2941 1934 2941 
Q 1425 2941 1122 2587 
Q 819 2234 819 1622 
z
" transform="scale(0.015625)"/>
       <path id="MalgunGothic-62" d="M 1034 481 
L 1034 0 
L 538 0 
L 538 4859 
L 1034 4859 
L 1034 2703 
L 1047 2703 
Q 1438 3359 2184 3359 
Q 2813 3359 3173 2917 
Q 3534 2475 3534 1738 
Q 3534 906 3126 414 
Q 2719 -78 2034 -78 
Q 1384 -78 1047 481 
L 1034 481 
z
M 1034 1334 
Q 1034 922 1307 633 
Q 1581 344 1991 344 
Q 2475 344 2751 716 
Q 3028 1088 3028 1753 
Q 3028 2303 2767 2622 
Q 2506 2941 2072 2941 
Q 1616 2941 1325 2616 
Q 1034 2291 1034 1803 
L 1034 1334 
z
" transform="scale(0.015625)"/>
       <path id="MalgunGothic-61" d="M 616 3050 
Q 1097 3359 1722 3359 
Q 2866 3359 2866 2147 
L 2866 0 
L 2369 0 
L 2369 516 
L 2350 516 
Q 2009 -78 1341 -78 
Q 859 -78 576 180 
Q 294 438 294 869 
Q 294 1784 1375 1934 
L 2366 2078 
Q 2366 2934 1684 2934 
Q 1084 2934 616 2525 
L 616 3050 
z
M 1563 1559 
Q 1178 1509 993 1371 
Q 809 1234 809 903 
Q 809 653 986 500 
Q 1163 347 1450 347 
Q 1847 347 2106 628 
Q 2366 909 2366 1334 
L 2366 1666 
L 1563 1559 
z
" transform="scale(0.015625)"/>
       <path id="MalgunGothic-69" d="M 472 4466 
Q 472 4606 565 4701 
Q 659 4797 794 4797 
Q 934 4797 1029 4700 
Q 1125 4603 1125 4466 
Q 1125 4325 1029 4231 
Q 934 4138 794 4138 
Q 659 4138 565 4230 
Q 472 4322 472 4466 
z
M 541 0 
L 541 3284 
L 1034 3284 
L 1034 0 
L 541 0 
z
" transform="scale(0.015625)"/>
       <path id="MalgunGothic-6c" d="M 541 0 
L 541 4859 
L 1034 4859 
L 1034 0 
L 541 0 
z
" transform="scale(0.015625)"/>
       <path id="MalgunGothic-74" d="M 2031 31 
Q 1844 -72 1553 -72 
Q 706 -72 706 881 
L 706 2856 
L 138 2856 
L 138 3284 
L 706 3284 
L 706 4091 
L 1200 4250 
L 1200 3284 
L 2031 3284 
L 2031 2856 
L 1200 2856 
L 1200 972 
Q 1200 625 1315 487 
Q 1431 350 1691 350 
Q 1888 350 2031 459 
L 2031 31 
z
" transform="scale(0.015625)"/>
       <path id="MalgunGothic-79" d="M 3119 3284 
L 1597 -544 
Q 1197 -1547 481 -1547 
Q 313 -1547 156 -1509 
L 156 -1056 
Q 316 -1109 459 -1109 
Q 859 -1109 1059 -628 
L 1328 6 
L 47 3284 
L 597 3284 
L 1503 722 
Q 1513 697 1572 488 
L 1588 488 
L 1650 716 
L 2603 3284 
L 3119 3284 
z
" transform="scale(0.015625)"/>
      </defs>
      <use xlink:href="#MalgunGothic-50"/>
      <use xlink:href="#MalgunGothic-72" x="57.080078"/>
      <use xlink:href="#MalgunGothic-6f" x="91.056641"/>
      <use xlink:href="#MalgunGothic-62" x="150.96875"/>
      <use xlink:href="#MalgunGothic-61" x="209.652344"/>
      <use xlink:href="#MalgunGothic-62" x="261.654297"/>
      <use xlink:href="#MalgunGothic-69" x="321.712891"/>
      <use xlink:href="#MalgunGothic-6c" x="346.322266"/>
      <use xlink:href="#MalgunGothic-69" x="370.931641"/>
      <use xlink:href="#MalgunGothic-74" x="395.541016"/>
      <use xlink:href="#MalgunGothic-79" x="430.013672"/>
     </g>
    </g>
   </g>
   <g id="line2d_45">
    <path d="M 108 168.612353 
L 149.85 215.970633 
L 191.7 255.27302 
L 233.55 287.247072 
L 275.4 312.620346 
L 317.25 332.1204 
L 359.1 346.474791 
L 400.95 356.411077 
L 442.8 362.656815 
L 484.65 365.939562 
L 526.5 366.986877 
L 568.35 366.526315 
L 610.2 365.285436 
L 652.05 363.991796 
L 693.9 363.372952 
L 735.75 364.156463 
L 777.6 367.069885 
" clip-path="url(#p0432646380)" style="fill: none; stroke: #1f77b4; stroke-width: 4; stroke-linecap: square"/>
   </g>
   <g id="line2d_46">
    <path d="M 108 238.762884 
L 149.85 251.394498 
L 191.7 261.935554 
L 233.55 270.54451 
L 275.4 277.379823 
L 317.25 282.599948 
L 359.1 286.363345 
L 400.95 288.828468 
L 442.8 290.153776 
L 484.65 290.497726 
L 526.5 290.018774 
L 568.35 288.875377 
L 610.2 287.225993 
L 652.05 285.229078 
L 693.9 283.04309 
L 735.75 280.826485 
L 777.6 278.73772 
" clip-path="url(#p0432646380)" style="fill: none; stroke: #ff7f0e; stroke-width: 4; stroke-linecap: square"/>
   </g>
   <g id="line2d_47">
    <path d="M 108 227.702777 
L 149.85 200.272477 
L 191.7 179.326166 
L 233.55 164.207645 
L 275.4 154.260715 
L 317.25 148.829177 
L 359.1 147.256832 
L 400.95 148.88748 
L 442.8 153.064923 
L 484.65 159.132962 
L 526.5 166.435397 
L 568.35 174.31603 
L 610.2 182.11866 
L 652.05 189.18709 
L 693.9 194.86512 
L 735.75 198.496551 
L 777.6 199.425184 
" clip-path="url(#p0432646380)" style="fill: none; stroke: #2ca02c; stroke-width: 4; stroke-linecap: square"/>
   </g>
   <g id="line2d_48">
    <path d="M 108 253.63809 
L 149.85 279.383942 
L 191.7 300.0275 
L 233.55 316.115716 
L 275.4 328.195541 
L 317.25 336.813926 
L 359.1 342.517822 
L 400.95 345.854183 
L 442.8 347.369958 
L 484.65 347.612099 
L 526.5 347.127558 
L 568.35 346.463287 
L 610.2 346.166236 
L 652.05 346.783358 
L 693.9 348.861604 
L 735.75 352.947925 
L 777.6 359.589272 
" clip-path="url(#p0432646380)" style="fill: none; stroke: #d62728; stroke-width: 4; stroke-linecap: square"/>
   </g>
   <g id="line2d_49">
    <path d="M 108 221.504622 
L 149.85 222.760261 
L 191.7 226.668422 
L 233.55 232.723733 
L 275.4 240.420823 
L 317.25 249.254321 
L 359.1 258.718855 
L 400.95 268.309055 
L 442.8 277.519548 
L 484.65 285.844964 
L 526.5 292.779931 
L 568.35 297.819078 
L 610.2 300.457033 
L 652.05 300.188425 
L 693.9 296.507883 
L 735.75 288.910036 
L 777.6 276.889512 
" clip-path="url(#p0432646380)" style="fill: none; stroke: #9467bd; stroke-width: 4; stroke-linecap: square"/>
   </g>
   <g id="line2d_50">
    <path d="M 108 307.007713 
L 149.85 292.722 
L 191.7 281.575584 
L 233.55 273.341511 
L 275.4 267.792826 
L 317.25 264.702576 
L 359.1 263.843805 
L 400.95 264.98956 
L 442.8 267.912887 
L 484.65 272.386831 
L 526.5 278.184438 
L 568.35 285.078753 
L 610.2 292.842824 
L 652.05 301.249694 
L 693.9 310.072411 
L 735.75 319.08402 
L 777.6 328.057567 
" clip-path="url(#p0432646380)" style="fill: none; stroke: #8c564b; stroke-width: 4; stroke-linecap: square"/>
   </g>
   <g id="line2d_51">
    <path d="M 108 312.57747 
L 149.85 281.689529 
L 191.7 256.908761 
L 233.55 237.372528 
L 275.4 222.21819 
L 317.25 210.583109 
L 359.1 201.604647 
L 400.95 194.420165 
L 442.8 188.167023 
L 484.65 181.982584 
L 526.5 175.004208 
L 568.35 166.369258 
L 610.2 155.215094 
L 652.05 140.679077 
L 693.9 121.89857 
L 735.75 98.010933 
L 777.6 68.153528 
" clip-path="url(#p0432646380)" style="fill: none; stroke: #e377c2; stroke-width: 4; stroke-linecap: square"/>
   </g>
   <g id="line2d_52">
    <path d="M 108 306.173904 
L 149.85 316.748615 
L 191.7 325.938182 
L 233.55 333.840882 
L 275.4 340.554991 
L 317.25 346.178786 
L 359.1 350.810543 
L 400.95 354.548539 
L 442.8 357.491049 
L 484.65 359.736351 
L 526.5 361.382721 
L 568.35 362.528436 
L 610.2 363.271771 
L 652.05 363.711004 
L 693.9 363.944411 
L 735.75 364.070268 
L 777.6 364.186852 
" clip-path="url(#p0432646380)" style="fill: none; stroke: #7f7f7f; stroke-width: 4; stroke-linecap: square"/>
   </g>
   <g id="line2d_53">
    <path d="M 108 322.14004 
L 149.85 303.353092 
L 191.7 287.291631 
L 233.55 273.86472 
L 275.4 262.98142 
L 317.25 254.550795 
L 359.1 248.481906 
L 400.95 244.683817 
L 442.8 243.065588 
L 484.65 243.536283 
L 526.5 246.004965 
L 568.35 250.380694 
L 610.2 256.572535 
L 652.05 264.489548 
L 693.9 274.040798 
L 735.75 285.135345 
L 777.6 297.682252 
" clip-path="url(#p0432646380)" style="fill: none; stroke: #bcbd22; stroke-width: 4; stroke-linecap: square"/>
   </g>
   <g id="line2d_54">
    <path d="M 108 321.229244 
L 149.85 318.299212 
L 191.7 316.109353 
L 233.55 314.644884 
L 275.4 313.89102 
L 317.25 313.832975 
L 359.1 314.455964 
L 400.95 315.745204 
L 442.8 317.685908 
L 484.65 320.263292 
L 526.5 323.462572 
L 568.35 327.268962 
L 610.2 331.667678 
L 652.05 336.643934 
L 693.9 342.182946 
L 735.75 348.26993 
L 777.6 354.890099 
" clip-path="url(#p0432646380)" style="fill: none; stroke: #17becf; stroke-width: 4; stroke-linecap: square"/>
   </g>
   <g id="patch_3">
    <path d="M 108 378 
L 108 51.84 
" style="fill: none; stroke: #000000; stroke-width: 0.8; stroke-linejoin: miter; stroke-linecap: square"/>
   </g>
   <g id="patch_4">
    <path d="M 777.6 378 
L 777.6 51.84 
" style="fill: none; stroke: #000000; stroke-width: 0.8; stroke-linejoin: miter; stroke-linecap: square"/>
   </g>
   <g id="patch_5">
    <path d="M 108 378 
L 777.6 378 
" style="fill: none; stroke: #000000; stroke-width: 0.8; stroke-linejoin: miter; stroke-linecap: square"/>
   </g>
   <g id="patch_6">
    <path d="M 108 51.84 
L 777.6 51.84 
" style="fill: none; stroke: #000000; stroke-width: 0.8; stroke-linejoin: miter; stroke-linecap: square"/>
   </g>
   <g id="legend_1">
    <g id="patch_7">
     <path d="M 120.6 173.925 
L 609.62625 173.925 
Q 613.22625 173.925 613.22625 170.325 
L 613.22625 64.44 
Q 613.22625 60.84 609.62625 60.84 
L 120.6 60.84 
Q 117 60.84 117 64.44 
L 117 170.325 
Q 117 173.925 120.6 173.925 
z
" style="fill: #ffffff; opacity: 0.7; stroke: #cccccc; stroke-linejoin: miter"/>
    </g>
    <g id="line2d_55">
     <path d="M 124.2 75.405937 
L 142.2 75.405937 
L 160.2 75.405937 
" style="fill: none; stroke: #1f77b4; stroke-width: 4; stroke-linecap: square"/>
    </g>
    <g id="text_16">
     <!-- Museum -->
     <g transform="translate(174.6 81.705937)scale(0.18 -0.18)">
      <defs>
       <path id="MalgunGothic-4d" d="M 4756 0 
L 4756 3106 
Q 4756 3466 4803 3994 
L 4788 3994 
Q 4713 3684 4653 3559 
L 3050 0 
L 2822 0 
L 1222 3534 
Q 1159 3669 1091 3994 
L 1075 3994 
Q 1100 3822 1100 3116 
L 1100 0 
L 609 0 
L 609 4600 
L 1269 4600 
L 2706 1359 
Q 2881 966 2922 816 
L 2941 816 
Q 2988 944 3166 1375 
L 4638 4600 
L 5259 4600 
L 5259 0 
L 4756 0 
z
" transform="scale(0.015625)"/>
       <path id="MalgunGothic-75" d="M 3166 0 
L 2669 0 
L 2669 519 
L 2656 519 
Q 2331 -78 1644 -78 
Q 469 -78 469 1322 
L 469 3284 
L 959 3284 
L 959 1403 
Q 959 344 1766 344 
Q 2159 344 2414 636 
Q 2669 928 2669 1394 
L 2669 3284 
L 3166 3284 
L 3166 0 
z
" transform="scale(0.015625)"/>
       <path id="MalgunGothic-73" d="M 331 669 
Q 763 350 1278 350 
Q 1978 350 1978 822 
Q 1978 1025 1825 1158 
Q 1672 1291 1222 1459 
Q 703 1666 520 1878 
Q 338 2091 338 2416 
Q 338 2834 700 3096 
Q 1063 3359 1584 3359 
Q 2003 3359 2341 3213 
L 2341 2697 
Q 1975 2934 1506 2934 
Q 1200 2934 1025 2798 
Q 850 2663 850 2459 
Q 850 2241 979 2125 
Q 1109 2009 1544 1838 
Q 2131 1609 2309 1390 
Q 2488 1172 2488 869 
Q 2488 431 2127 176 
Q 1766 -78 1203 -78 
Q 694 -78 331 122 
L 331 669 
z
" transform="scale(0.015625)"/>
       <path id="MalgunGothic-65" d="M 3156 1519 
L 828 1519 
Q 844 950 1133 648 
Q 1422 347 1909 347 
Q 2472 347 2934 719 
L 2934 244 
Q 2494 -78 1794 -78 
Q 1100 -78 708 376 
Q 316 831 316 1634 
Q 316 2381 747 2870 
Q 1178 3359 1816 3359 
Q 2453 3359 2804 2942 
Q 3156 2525 3156 1788 
L 3156 1519 
z
M 2644 1956 
Q 2644 2416 2423 2675 
Q 2203 2934 1809 2934 
Q 1438 2934 1169 2667 
Q 900 2400 834 1956 
L 2644 1956 
z
" transform="scale(0.015625)"/>
       <path id="MalgunGothic-6d" d="M 5166 0 
L 4669 0 
L 4669 1884 
Q 4669 2463 4495 2702 
Q 4322 2941 3922 2941 
Q 3584 2941 3342 2623 
Q 3100 2306 3100 1875 
L 3100 0 
L 2606 0 
L 2606 1953 
Q 2606 2941 1844 2941 
Q 1497 2941 1265 2642 
Q 1034 2344 1034 1875 
L 1034 0 
L 538 0 
L 538 3284 
L 1034 3284 
L 1034 2763 
L 1047 2763 
Q 1391 3359 2063 3359 
Q 2381 3359 2636 3176 
Q 2891 2994 2991 2675 
Q 3356 3359 4081 3359 
Q 5166 3359 5166 2022 
L 5166 0 
z
" transform="scale(0.015625)"/>
      </defs>
      <use xlink:href="#MalgunGothic-4d"/>
      <use xlink:href="#MalgunGothic-75" x="91.699219"/>
      <use xlink:href="#MalgunGothic-73" x="149.511719"/>
      <use xlink:href="#MalgunGothic-65" x="192.822266"/>
      <use xlink:href="#MalgunGothic-75" x="246.337891"/>
      <use xlink:href="#MalgunGothic-6d" x="304.150391"/>
     </g>
    </g>
    <g id="line2d_56">
     <path d="M 124.2 102.327187 
L 142.2 102.327187 
L 160.2 102.327187 
" style="fill: none; stroke: #ff7f0e; stroke-width: 4; stroke-linecap: square"/>
    </g>
    <g id="text_17">
     <!-- Tourism -->
     <g transform="translate(174.6 108.627187)scale(0.18 -0.18)">
      <defs>
       <path id="MalgunGothic-54" d="M 3294 4134 
L 1966 4134 
L 1966 0 
L 1456 0 
L 1456 4134 
L 134 4134 
L 134 4600 
L 3294 4600 
L 3294 4134 
z
" transform="scale(0.015625)"/>
      </defs>
      <use xlink:href="#MalgunGothic-54"/>
      <use xlink:href="#MalgunGothic-6f" x="42.244141"/>
      <use xlink:href="#MalgunGothic-75" x="102.15625"/>
      <use xlink:href="#MalgunGothic-72" x="159.96875"/>
      <use xlink:href="#MalgunGothic-69" x="195.320312"/>
      <use xlink:href="#MalgunGothic-73" x="219.929688"/>
      <use xlink:href="#MalgunGothic-6d" x="263.240234"/>
     </g>
    </g>
    <g id="line2d_57">
     <path d="M 124.2 129.248437 
L 142.2 129.248437 
L 160.2 129.248437 
" style="fill: none; stroke: #2ca02c; stroke-width: 4; stroke-linecap: square"/>
    </g>
    <g id="text_18">
     <!-- Culture -->
     <g transform="translate(174.6 135.548437)scale(0.18 -0.18)">
      <defs>
       <path id="MalgunGothic-43" d="M 3725 197 
Q 3216 -78 2459 -78 
Q 1488 -78 897 561 
Q 306 1200 306 2213 
Q 306 3281 959 3978 
Q 1613 4675 2644 4675 
Q 3297 4675 3725 4484 
L 3725 3941 
Q 3234 4213 2634 4213 
Q 1813 4213 1325 3659 
Q 838 3106 838 2241 
Q 838 1413 1297 897 
Q 1756 381 2522 381 
Q 3216 381 3725 688 
L 3725 197 
z
" transform="scale(0.015625)"/>
      </defs>
      <use xlink:href="#MalgunGothic-43"/>
      <use xlink:href="#MalgunGothic-75" x="63.476562"/>
      <use xlink:href="#MalgunGothic-6c" x="121.289062"/>
      <use xlink:href="#MalgunGothic-74" x="145.898438"/>
      <use xlink:href="#MalgunGothic-75" x="180.371094"/>
      <use xlink:href="#MalgunGothic-72" x="238.183594"/>
      <use xlink:href="#MalgunGothic-65" x="272.160156"/>
     </g>
    </g>
    <g id="line2d_58">
     <path d="M 124.2 156.169687 
L 142.2 156.169687 
L 160.2 156.169687 
" style="fill: none; stroke: #d62728; stroke-width: 4; stroke-linecap: square"/>
    </g>
    <g id="text_19">
     <!-- Korea -->
     <g transform="translate(174.6 162.469687)scale(0.18 -0.18)">
      <defs>
       <path id="MalgunGothic-4b" d="M 3769 0 
L 3053 0 
L 1250 2109 
Q 1150 2225 1128 2263 
L 1113 2263 
L 1113 0 
L 609 0 
L 609 4600 
L 1113 4600 
L 1113 2438 
L 1128 2438 
Q 1175 2509 1250 2588 
L 3000 4600 
L 3628 4600 
L 1634 2394 
L 3769 0 
z
" transform="scale(0.015625)"/>
      </defs>
      <use xlink:href="#MalgunGothic-4b"/>
      <use xlink:href="#MalgunGothic-6f" x="57.658203"/>
      <use xlink:href="#MalgunGothic-72" x="117.570312"/>
      <use xlink:href="#MalgunGothic-65" x="151.546875"/>
      <use xlink:href="#MalgunGothic-61" x="205.0625"/>
     </g>
    </g>
    <g id="line2d_59">
     <path d="M 281.185313 75.405937 
L 299.185313 75.405937 
L 317.185313 75.405937 
" style="fill: none; stroke: #9467bd; stroke-width: 4; stroke-linecap: square"/>
    </g>
    <g id="text_20">
     <!-- Festival -->
     <g transform="translate(331.585312 81.705937)scale(0.18 -0.18)">
      <defs>
       <path id="MalgunGothic-46" d="M 2922 4134 
L 1113 4134 
L 1113 2516 
L 2788 2516 
L 2788 2050 
L 1113 2050 
L 1113 0 
L 609 0 
L 609 4600 
L 2922 4600 
L 2922 4134 
z
" transform="scale(0.015625)"/>
       <path id="MalgunGothic-76" d="M 3084 3284 
L 1769 0 
L 1294 0 
L 47 3284 
L 594 3284 
L 1441 872 
Q 1531 609 1556 425 
L 1572 425 
Q 1603 669 1672 863 
L 2563 3284 
L 3084 3284 
z
" transform="scale(0.015625)"/>
      </defs>
      <use xlink:href="#MalgunGothic-46"/>
      <use xlink:href="#MalgunGothic-65" x="49.853516"/>
      <use xlink:href="#MalgunGothic-73" x="103.369141"/>
      <use xlink:href="#MalgunGothic-74" x="146.679688"/>
      <use xlink:href="#MalgunGothic-69" x="181.152344"/>
      <use xlink:href="#MalgunGothic-76" x="205.761719"/>
      <use xlink:href="#MalgunGothic-61" x="252.492188"/>
      <use xlink:href="#MalgunGothic-6c" x="304.494141"/>
     </g>
    </g>
    <g id="line2d_60">
     <path d="M 281.185313 102.327187 
L 299.185313 102.327187 
L 317.185313 102.327187 
" style="fill: none; stroke: #8c564b; stroke-width: 4; stroke-linecap: square"/>
    </g>
    <g id="text_21">
     <!-- Education -->
     <g transform="translate(331.585312 108.627187)scale(0.18 -0.18)">
      <defs>
       <path id="MalgunGothic-45" d="M 3025 0 
L 609 0 
L 609 4600 
L 2922 4600 
L 2922 4134 
L 1113 4134 
L 1113 2572 
L 2784 2572 
L 2784 2109 
L 1113 2109 
L 1113 463 
L 3025 463 
L 3025 0 
z
" transform="scale(0.015625)"/>
       <path id="MalgunGothic-64" d="M 3313 0 
L 2822 0 
L 2822 566 
L 2809 566 
Q 2444 -78 1675 -78 
Q 1056 -78 686 364 
Q 316 806 316 1566 
Q 316 2375 728 2867 
Q 1141 3359 1816 3359 
Q 2494 3359 2809 2822 
L 2822 2822 
L 2822 4859 
L 3313 4859 
L 3313 0 
z
M 2822 1978 
Q 2822 2378 2550 2659 
Q 2278 2941 1872 2941 
Q 1384 2941 1101 2577 
Q 819 2213 819 1591 
Q 819 1025 1086 684 
Q 1353 344 1813 344 
Q 2250 344 2536 666 
Q 2822 988 2822 1478 
L 2822 1978 
z
" transform="scale(0.015625)"/>
       <path id="MalgunGothic-63" d="M 2763 153 
Q 2375 -78 1872 -78 
Q 1184 -78 750 372 
Q 316 822 316 1566 
Q 316 2381 777 2870 
Q 1238 3359 2009 3359 
Q 2434 3359 2766 3200 
L 2766 2681 
Q 2397 2941 1981 2941 
Q 1478 2941 1148 2577 
Q 819 2213 819 1609 
Q 819 1034 1120 689 
Q 1422 344 1947 344 
Q 2381 344 2763 631 
L 2763 153 
z
" transform="scale(0.015625)"/>
       <path id="MalgunGothic-6e" d="M 3238 0 
L 2741 0 
L 2741 1875 
Q 2741 2941 1963 2941 
Q 1563 2941 1298 2639 
Q 1034 2338 1034 1872 
L 1034 0 
L 538 0 
L 538 3284 
L 1034 3284 
L 1034 2734 
L 1047 2734 
Q 1416 3359 2125 3359 
Q 2666 3359 2952 3012 
Q 3238 2666 3238 2006 
L 3238 0 
z
" transform="scale(0.015625)"/>
      </defs>
      <use xlink:href="#MalgunGothic-45"/>
      <use xlink:href="#MalgunGothic-64" x="51.708984"/>
      <use xlink:href="#MalgunGothic-75" x="111.914062"/>
      <use xlink:href="#MalgunGothic-63" x="169.726562"/>
      <use xlink:href="#MalgunGothic-61" x="216.992188"/>
      <use xlink:href="#MalgunGothic-74" x="268.994141"/>
      <use xlink:href="#MalgunGothic-69" x="303.466797"/>
      <use xlink:href="#MalgunGothic-6f" x="328.076172"/>
      <use xlink:href="#MalgunGothic-6e" x="387.988281"/>
     </g>
    </g>
    <g id="line2d_61">
     <path d="M 281.185313 129.248437 
L 299.185313 129.248437 
L 317.185313 129.248437 
" style="fill: none; stroke: #e377c2; stroke-width: 4; stroke-linecap: square"/>
    </g>
    <g id="text_22">
     <!-- Experience -->
     <g transform="translate(331.585312 135.548437)scale(0.18 -0.18)">
      <defs>
       <path id="MalgunGothic-78" d="M 2884 3284 
L 1784 1616 
L 2869 0 
L 2288 0 
L 1634 1078 
Q 1563 1197 1491 1325 
L 1475 1325 
Q 1456 1284 1328 1078 
L 656 0 
L 88 0 
L 1209 1606 
L 134 3284 
L 713 3284 
L 1494 1897 
L 1506 1897 
Q 1525 1925 1641 2119 
L 2344 3284 
L 2884 3284 
z
" transform="scale(0.015625)"/>
       <path id="MalgunGothic-70" d="M 1034 481 
L 1034 -1513 
L 538 -1513 
L 538 3284 
L 1034 3284 
L 1034 2703 
L 1047 2703 
Q 1438 3359 2184 3359 
Q 2809 3359 3171 2920 
Q 3534 2481 3534 1738 
Q 3534 906 3126 414 
Q 2719 -78 2034 -78 
Q 1394 -78 1047 481 
L 1034 481 
z
M 1034 1331 
Q 1034 922 1307 633 
Q 1581 344 1991 344 
Q 2475 344 2751 716 
Q 3028 1088 3028 1753 
Q 3028 2300 2767 2620 
Q 2506 2941 2072 2941 
Q 1619 2941 1326 2619 
Q 1034 2297 1034 1806 
L 1034 1331 
z
" transform="scale(0.015625)"/>
      </defs>
      <use xlink:href="#MalgunGothic-45"/>
      <use xlink:href="#MalgunGothic-78" x="51.708984"/>
      <use xlink:href="#MalgunGothic-70" x="98.193359"/>
      <use xlink:href="#MalgunGothic-65" x="158.251953"/>
      <use xlink:href="#MalgunGothic-72" x="211.767578"/>
      <use xlink:href="#MalgunGothic-69" x="247.119141"/>
      <use xlink:href="#MalgunGothic-65" x="271.728516"/>
      <use xlink:href="#MalgunGothic-6e" x="325.244141"/>
      <use xlink:href="#MalgunGothic-63" x="383.056641"/>
      <use xlink:href="#MalgunGothic-65" x="430.322266"/>
     </g>
    </g>
    <g id="line2d_62">
     <path d="M 454.677188 75.405937 
L 472.677188 75.405937 
L 490.677188 75.405937 
" style="fill: none; stroke: #7f7f7f; stroke-width: 4; stroke-linecap: square"/>
    </g>
    <g id="text_23">
     <!-- Afternoon -->
     <g transform="translate(505.077187 81.705937)scale(0.18 -0.18)">
      <defs>
       <path id="MalgunGothic-41" d="M 4134 0 
L 3575 0 
L 3075 1306 
L 1103 1306 
L 638 0 
L 75 0 
L 1844 4600 
L 2356 4600 
L 4134 0 
z
M 2903 1769 
L 2169 3756 
Q 2128 3866 2100 4059 
L 2084 4059 
Q 2050 3844 2009 3756 
L 1281 1769 
L 2903 1769 
z
" transform="scale(0.015625)"/>
       <path id="MalgunGothic-66" d="M 2128 4422 
Q 1975 4506 1778 4506 
Q 1222 4506 1222 3800 
L 1222 3284 
L 1991 3284 
L 1991 2856 
L 1222 2856 
L 1222 0 
L 734 0 
L 734 2856 
L 172 2856 
L 172 3284 
L 734 3284 
L 734 3825 
Q 734 4341 1026 4636 
Q 1319 4931 1753 4931 
Q 1994 4931 2128 4875 
L 2128 4422 
z
" transform="scale(0.015625)"/>
      </defs>
      <use xlink:href="#MalgunGothic-41"/>
      <use xlink:href="#MalgunGothic-66" x="65.820312"/>
      <use xlink:href="#MalgunGothic-74" x="99.460938"/>
      <use xlink:href="#MalgunGothic-65" x="133.058594"/>
      <use xlink:href="#MalgunGothic-72" x="186.574219"/>
      <use xlink:href="#MalgunGothic-6e" x="221.675781"/>
      <use xlink:href="#MalgunGothic-6f" x="279.488281"/>
      <use xlink:href="#MalgunGothic-6f" x="339.400391"/>
      <use xlink:href="#MalgunGothic-6e" x="399.3125"/>
     </g>
    </g>
    <g id="line2d_63">
     <path d="M 454.677188 102.327187 
L 472.677188 102.327187 
L 490.677188 102.327187 
" style="fill: none; stroke: #bcbd22; stroke-width: 4; stroke-linecap: square"/>
    </g>
    <g id="text_24">
     <!-- Event -->
     <g transform="translate(505.077187 108.627187)scale(0.18 -0.18)">
      <use xlink:href="#MalgunGothic-45"/>
      <use xlink:href="#MalgunGothic-76" x="51.708984"/>
      <use xlink:href="#MalgunGothic-65" x="99.814453"/>
      <use xlink:href="#MalgunGothic-6e" x="153.330078"/>
      <use xlink:href="#MalgunGothic-74" x="211.142578"/>
     </g>
    </g>
    <g id="line2d_64">
     <path d="M 454.677188 129.248437 
L 472.677188 129.248437 
L 490.677188 129.248437 
" style="fill: none; stroke: #17becf; stroke-width: 4; stroke-linecap: square"/>
    </g>
    <g id="text_25">
     <!-- Competition -->
     <g transform="translate(505.077187 135.548437)scale(0.18 -0.18)">
      <use xlink:href="#MalgunGothic-43"/>
      <use xlink:href="#MalgunGothic-6f" x="63.476562"/>
      <use xlink:href="#MalgunGothic-6d" x="123.388672"/>
      <use xlink:href="#MalgunGothic-70" x="211.376953"/>
      <use xlink:href="#MalgunGothic-65" x="271.435547"/>
      <use xlink:href="#MalgunGothic-74" x="324.951172"/>
      <use xlink:href="#MalgunGothic-69" x="359.423828"/>
      <use xlink:href="#MalgunGothic-74" x="384.033203"/>
      <use xlink:href="#MalgunGothic-69" x="418.505859"/>
      <use xlink:href="#MalgunGothic-6f" x="443.115234"/>
      <use xlink:href="#MalgunGothic-6e" x="503.027344"/>
     </g>
    </g>
   </g>
  </g>
 </g>
 <defs>
  <clipPath id="p0432646380">
   <rect x="108" y="51.84" width="669.6" height="326.16"/>
  </clipPath>
 </defs>
</svg>
