<?xml version="1.0" encoding="utf-8" standalone="no"?>
<!DOCTYPE svg PUBLIC "-//W3C//DTD SVG 1.1//EN"
  "http://www.w3.org/Graphics/SVG/1.1/DTD/svg11.dtd">
<svg xmlns:xlink="http://www.w3.org/1999/xlink" width="864pt" height="432pt" viewBox="0 0 864 432" xmlns="http://www.w3.org/2000/svg" version="1.1">
 <metadata>
  <rdf:RDF xmlns:dc="http://purl.org/dc/elements/1.1/" xmlns:cc="http://creativecommons.org/ns#" xmlns:rdf="http://www.w3.org/1999/02/22-rdf-syntax-ns#">
   <cc:Work>
    <dc:type rdf:resource="http://purl.org/dc/dcmitype/StillImage"/>
    <dc:date>2023-03-28T16:33:58.902980</dc:date>
    <dc:format>image/svg+xml</dc:format>
    <dc:creator>
     <cc:Agent>
      <dc:title>Matplotlib v3.5.1, https://matplotlib.org/</dc:title>
     </cc:Agent>
    </dc:creator>
   </cc:Work>
  </rdf:RDF>
 </metadata>
 <defs>
  <style type="text/css">*{stroke-linejoin: round; stroke-linecap: butt}</style>
 </defs>
 <g id="figure_1">
  <g id="patch_1">
   <path d="M 0 432 
L 864 432 
L 864 0 
L 0 0 
L 0 432 
z
" style="fill: none"/>
  </g>
  <g id="axes_1">
   <g id="patch_2">
    <path d="M 108 378 
L 777.6 378 
L 777.6 51.84 
L 108 51.84 
z
" style="fill: #ffffff"/>
   </g>
   <g id="matplotlib.axis_1">
    <g id="xtick_1">
     <g id="line2d_1">
      <path d="M 108 378 
L 108 51.84 
" clip-path="url(#pa17f18d48a)" style="fill: none; stroke: #b0b0b0; stroke-width: 0.8; stroke-linecap: square"/>
     </g>
     <g id="line2d_2">
      <defs>
       <path id="mdfe7776438" d="M 0 0 
L 0 3.5 
" style="stroke: #000000; stroke-width: 0.8"/>
      </defs>
      <g>
       <use xlink:href="#mdfe7776438" x="108" y="378" style="stroke: #000000; stroke-width: 0.8"/>
      </g>
     </g>
     <g id="text_1">
      <!-- 2004 -->
      <g transform="translate(85.96875 400.184375)scale(0.2 -0.2)">
       <defs>
        <path id="MalgunGothic-32" d="M 2519 3372 
Q 2519 3784 2275 4018 
Q 2031 4253 1628 4253 
Q 1341 4253 1053 4104 
Q 766 3956 534 3697 
L 534 4234 
Q 981 4675 1691 4675 
Q 2281 4675 2642 4334 
Q 3003 3994 3003 3416 
Q 3003 2919 2772 2545 
Q 2541 2172 1984 1775 
Q 1459 1406 1254 1215 
Q 1050 1025 967 854 
Q 884 684 884 450 
L 3116 450 
L 3116 0 
L 356 0 
L 356 225 
Q 356 603 461 870 
Q 566 1138 811 1392 
Q 1056 1647 1597 2022 
Q 2091 2363 2305 2670 
Q 2519 2978 2519 3372 
z
" transform="scale(0.015625)"/>
        <path id="MalgunGothic-30" d="M 278 2206 
Q 278 3425 675 4050 
Q 1072 4675 1819 4675 
Q 3253 4675 3253 2319 
Q 3253 1156 2854 539 
Q 2456 -78 1716 -78 
Q 1016 -78 647 520 
Q 278 1119 278 2206 
z
M 784 2231 
Q 784 344 1769 344 
Q 2747 344 2747 2259 
Q 2747 4250 1794 4250 
Q 784 4250 784 2231 
z
" transform="scale(0.015625)"/>
        <path id="MalgunGothic-34" d="M 2703 4600 
L 2703 1563 
L 3309 1563 
L 3309 1113 
L 2703 1113 
L 2703 0 
L 2213 0 
L 2213 1113 
L 50 1113 
L 50 1534 
Q 728 2297 1295 3109 
Q 1863 3922 2172 4600 
L 2703 4600 
z
M 625 1563 
L 2213 1563 
L 2213 3831 
Q 1613 2788 959 1981 
L 625 1563 
z
" transform="scale(0.015625)"/>
       </defs>
       <use xlink:href="#MalgunGothic-32"/>
       <use xlink:href="#MalgunGothic-30" x="55.078125"/>
       <use xlink:href="#MalgunGothic-30" x="110.15625"/>
       <use xlink:href="#MalgunGothic-34" x="165.234375"/>
      </g>
     </g>
    </g>
    <g id="xtick_2">
     <g id="line2d_3">
      <path d="M 149.85 378 
L 149.85 51.84 
" clip-path="url(#pa17f18d48a)" style="fill: none; stroke: #b0b0b0; stroke-width: 0.8; stroke-linecap: square"/>
     </g>
     <g id="line2d_4">
      <g>
       <use xlink:href="#mdfe7776438" x="149.85" y="378" style="stroke: #000000; stroke-width: 0.8"/>
      </g>
     </g>
    </g>
    <g id="xtick_3">
     <g id="line2d_5">
      <path d="M 191.7 378 
L 191.7 51.84 
" clip-path="url(#pa17f18d48a)" style="fill: none; stroke: #b0b0b0; stroke-width: 0.8; stroke-linecap: square"/>
     </g>
     <g id="line2d_6">
      <g>
       <use xlink:href="#mdfe7776438" x="191.7" y="378" style="stroke: #000000; stroke-width: 0.8"/>
      </g>
     </g>
     <g id="text_2">
      <!-- 2006 -->
      <g transform="translate(169.66875 400.184375)scale(0.2 -0.2)">
       <defs>
        <path id="MalgunGothic-36" d="M 2981 4069 
Q 2619 4250 2228 4250 
Q 1591 4250 1228 3689 
Q 866 3128 869 2213 
L 884 2213 
Q 1203 2872 1938 2872 
Q 2547 2872 2903 2478 
Q 3259 2084 3259 1450 
Q 3259 797 2857 359 
Q 2456 -78 1825 -78 
Q 1116 -78 736 478 
Q 356 1034 356 2019 
Q 356 3181 847 3928 
Q 1338 4675 2222 4675 
Q 2700 4675 2981 4544 
L 2981 4069 
z
M 906 1506 
Q 906 1022 1165 683 
Q 1425 344 1844 344 
Q 2247 344 2498 645 
Q 2750 947 2750 1388 
Q 2750 1888 2509 2167 
Q 2269 2447 1838 2447 
Q 1444 2447 1175 2173 
Q 906 1900 906 1506 
z
" transform="scale(0.015625)"/>
       </defs>
       <use xlink:href="#MalgunGothic-32"/>
       <use xlink:href="#MalgunGothic-30" x="55.078125"/>
       <use xlink:href="#MalgunGothic-30" x="110.15625"/>
       <use xlink:href="#MalgunGothic-36" x="165.234375"/>
      </g>
     </g>
    </g>
    <g id="xtick_4">
     <g id="line2d_7">
      <path d="M 233.55 378 
L 233.55 51.84 
" clip-path="url(#pa17f18d48a)" style="fill: none; stroke: #b0b0b0; stroke-width: 0.8; stroke-linecap: square"/>
     </g>
     <g id="line2d_8">
      <g>
       <use xlink:href="#mdfe7776438" x="233.55" y="378" style="stroke: #000000; stroke-width: 0.8"/>
      </g>
     </g>
    </g>
    <g id="xtick_5">
     <g id="line2d_9">
      <path d="M 275.4 378 
L 275.4 51.84 
" clip-path="url(#pa17f18d48a)" style="fill: none; stroke: #b0b0b0; stroke-width: 0.8; stroke-linecap: square"/>
     </g>
     <g id="line2d_10">
      <g>
       <use xlink:href="#mdfe7776438" x="275.4" y="378" style="stroke: #000000; stroke-width: 0.8"/>
      </g>
     </g>
     <g id="text_3">
      <!-- 2008 -->
      <g transform="translate(253.36875 400.184375)scale(0.2 -0.2)">
       <defs>
        <path id="MalgunGothic-38" d="M 303 1281 
Q 303 1669 539 2011 
Q 775 2353 1153 2494 
Q 856 2647 675 2915 
Q 494 3184 494 3500 
Q 494 3828 659 4098 
Q 825 4369 1122 4522 
Q 1419 4675 1778 4675 
Q 2334 4675 2700 4342 
Q 3066 4009 3066 3500 
Q 3066 3181 2881 2914 
Q 2697 2647 2413 2494 
Q 2788 2350 3022 2009 
Q 3256 1669 3256 1281 
Q 3256 672 2843 297 
Q 2431 -78 1778 -78 
Q 1131 -78 717 301 
Q 303 681 303 1281 
z
M 809 1328 
Q 809 878 1081 611 
Q 1353 344 1781 344 
Q 2206 344 2482 619 
Q 2759 894 2759 1328 
Q 2759 1731 2482 2011 
Q 2206 2291 1781 2291 
Q 1372 2291 1090 2020 
Q 809 1750 809 1328 
z
M 1003 3459 
Q 1003 3125 1234 2900 
Q 1466 2675 1781 2675 
Q 2097 2675 2330 2900 
Q 2563 3125 2563 3459 
Q 2563 3803 2341 4026 
Q 2119 4250 1781 4250 
Q 1450 4250 1226 4029 
Q 1003 3809 1003 3459 
z
" transform="scale(0.015625)"/>
       </defs>
       <use xlink:href="#MalgunGothic-32"/>
       <use xlink:href="#MalgunGothic-30" x="55.078125"/>
       <use xlink:href="#MalgunGothic-30" x="110.15625"/>
       <use xlink:href="#MalgunGothic-38" x="165.234375"/>
      </g>
     </g>
    </g>
    <g id="xtick_6">
     <g id="line2d_11">
      <path d="M 317.25 378 
L 317.25 51.84 
" clip-path="url(#pa17f18d48a)" style="fill: none; stroke: #b0b0b0; stroke-width: 0.8; stroke-linecap: square"/>
     </g>
     <g id="line2d_12">
      <g>
       <use xlink:href="#mdfe7776438" x="317.25" y="378" style="stroke: #000000; stroke-width: 0.8"/>
      </g>
     </g>
    </g>
    <g id="xtick_7">
     <g id="line2d_13">
      <path d="M 359.1 378 
L 359.1 51.84 
" clip-path="url(#pa17f18d48a)" style="fill: none; stroke: #b0b0b0; stroke-width: 0.8; stroke-linecap: square"/>
     </g>
     <g id="line2d_14">
      <g>
       <use xlink:href="#mdfe7776438" x="359.1" y="378" style="stroke: #000000; stroke-width: 0.8"/>
      </g>
     </g>
     <g id="text_4">
      <!-- 2010 -->
      <g transform="translate(337.06875 400.184375)scale(0.2 -0.2)">
       <defs>
        <path id="MalgunGothic-31" d="M 2231 0 
L 1734 0 
L 1734 3972 
Q 1591 3828 1266 3661 
Q 941 3494 672 3428 
L 672 3959 
Q 1016 4056 1409 4275 
Q 1803 4494 2031 4700 
L 2231 4700 
L 2231 0 
z
" transform="scale(0.015625)"/>
       </defs>
       <use xlink:href="#MalgunGothic-32"/>
       <use xlink:href="#MalgunGothic-30" x="55.078125"/>
       <use xlink:href="#MalgunGothic-31" x="110.15625"/>
       <use xlink:href="#MalgunGothic-30" x="165.234375"/>
      </g>
     </g>
    </g>
    <g id="xtick_8">
     <g id="line2d_15">
      <path d="M 400.95 378 
L 400.95 51.84 
" clip-path="url(#pa17f18d48a)" style="fill: none; stroke: #b0b0b0; stroke-width: 0.8; stroke-linecap: square"/>
     </g>
     <g id="line2d_16">
      <g>
       <use xlink:href="#mdfe7776438" x="400.95" y="378" style="stroke: #000000; stroke-width: 0.8"/>
      </g>
     </g>
    </g>
    <g id="xtick_9">
     <g id="line2d_17">
      <path d="M 442.8 378 
L 442.8 51.84 
" clip-path="url(#pa17f18d48a)" style="fill: none; stroke: #b0b0b0; stroke-width: 0.8; stroke-linecap: square"/>
     </g>
     <g id="line2d_18">
      <g>
       <use xlink:href="#mdfe7776438" x="442.8" y="378" style="stroke: #000000; stroke-width: 0.8"/>
      </g>
     </g>
     <g id="text_5">
      <!-- 2012 -->
      <g transform="translate(420.76875 400.184375)scale(0.2 -0.2)">
       <use xlink:href="#MalgunGothic-32"/>
       <use xlink:href="#MalgunGothic-30" x="55.078125"/>
       <use xlink:href="#MalgunGothic-31" x="110.15625"/>
       <use xlink:href="#MalgunGothic-32" x="165.234375"/>
      </g>
     </g>
    </g>
    <g id="xtick_10">
     <g id="line2d_19">
      <path d="M 484.65 378 
L 484.65 51.84 
" clip-path="url(#pa17f18d48a)" style="fill: none; stroke: #b0b0b0; stroke-width: 0.8; stroke-linecap: square"/>
     </g>
     <g id="line2d_20">
      <g>
       <use xlink:href="#mdfe7776438" x="484.65" y="378" style="stroke: #000000; stroke-width: 0.8"/>
      </g>
     </g>
    </g>
    <g id="xtick_11">
     <g id="line2d_21">
      <path d="M 526.5 378 
L 526.5 51.84 
" clip-path="url(#pa17f18d48a)" style="fill: none; stroke: #b0b0b0; stroke-width: 0.8; stroke-linecap: square"/>
     </g>
     <g id="line2d_22">
      <g>
       <use xlink:href="#mdfe7776438" x="526.5" y="378" style="stroke: #000000; stroke-width: 0.8"/>
      </g>
     </g>
     <g id="text_6">
      <!-- 2014 -->
      <g transform="translate(504.46875 400.184375)scale(0.2 -0.2)">
       <use xlink:href="#MalgunGothic-32"/>
       <use xlink:href="#MalgunGothic-30" x="55.078125"/>
       <use xlink:href="#MalgunGothic-31" x="110.15625"/>
       <use xlink:href="#MalgunGothic-34" x="165.234375"/>
      </g>
     </g>
    </g>
    <g id="xtick_12">
     <g id="line2d_23">
      <path d="M 568.35 378 
L 568.35 51.84 
" clip-path="url(#pa17f18d48a)" style="fill: none; stroke: #b0b0b0; stroke-width: 0.8; stroke-linecap: square"/>
     </g>
     <g id="line2d_24">
      <g>
       <use xlink:href="#mdfe7776438" x="568.35" y="378" style="stroke: #000000; stroke-width: 0.8"/>
      </g>
     </g>
    </g>
    <g id="xtick_13">
     <g id="line2d_25">
      <path d="M 610.2 378 
L 610.2 51.84 
" clip-path="url(#pa17f18d48a)" style="fill: none; stroke: #b0b0b0; stroke-width: 0.8; stroke-linecap: square"/>
     </g>
     <g id="line2d_26">
      <g>
       <use xlink:href="#mdfe7776438" x="610.2" y="378" style="stroke: #000000; stroke-width: 0.8"/>
      </g>
     </g>
     <g id="text_7">
      <!-- 2016 -->
      <g transform="translate(588.16875 400.184375)scale(0.2 -0.2)">
       <use xlink:href="#MalgunGothic-32"/>
       <use xlink:href="#MalgunGothic-30" x="55.078125"/>
       <use xlink:href="#MalgunGothic-31" x="110.15625"/>
       <use xlink:href="#MalgunGothic-36" x="165.234375"/>
      </g>
     </g>
    </g>
    <g id="xtick_14">
     <g id="line2d_27">
      <path d="M 652.05 378 
L 652.05 51.84 
" clip-path="url(#pa17f18d48a)" style="fill: none; stroke: #b0b0b0; stroke-width: 0.8; stroke-linecap: square"/>
     </g>
     <g id="line2d_28">
      <g>
       <use xlink:href="#mdfe7776438" x="652.05" y="378" style="stroke: #000000; stroke-width: 0.8"/>
      </g>
     </g>
    </g>
    <g id="xtick_15">
     <g id="line2d_29">
      <path d="M 693.9 378 
L 693.9 51.84 
" clip-path="url(#pa17f18d48a)" style="fill: none; stroke: #b0b0b0; stroke-width: 0.8; stroke-linecap: square"/>
     </g>
     <g id="line2d_30">
      <g>
       <use xlink:href="#mdfe7776438" x="693.9" y="378" style="stroke: #000000; stroke-width: 0.8"/>
      </g>
     </g>
     <g id="text_8">
      <!-- 2018 -->
      <g transform="translate(671.86875 400.184375)scale(0.2 -0.2)">
       <use xlink:href="#MalgunGothic-32"/>
       <use xlink:href="#MalgunGothic-30" x="55.078125"/>
       <use xlink:href="#MalgunGothic-31" x="110.15625"/>
       <use xlink:href="#MalgunGothic-38" x="165.234375"/>
      </g>
     </g>
    </g>
    <g id="xtick_16">
     <g id="line2d_31">
      <path d="M 735.75 378 
L 735.75 51.84 
" clip-path="url(#pa17f18d48a)" style="fill: none; stroke: #b0b0b0; stroke-width: 0.8; stroke-linecap: square"/>
     </g>
     <g id="line2d_32">
      <g>
       <use xlink:href="#mdfe7776438" x="735.75" y="378" style="stroke: #000000; stroke-width: 0.8"/>
      </g>
     </g>
    </g>
    <g id="xtick_17">
     <g id="line2d_33">
      <path d="M 777.6 378 
L 777.6 51.84 
" clip-path="url(#pa17f18d48a)" style="fill: none; stroke: #b0b0b0; stroke-width: 0.8; stroke-linecap: square"/>
     </g>
     <g id="line2d_34">
      <g>
       <use xlink:href="#mdfe7776438" x="777.6" y="378" style="stroke: #000000; stroke-width: 0.8"/>
      </g>
     </g>
     <g id="text_9">
      <!-- 2020 -->
      <g transform="translate(755.56875 400.184375)scale(0.2 -0.2)">
       <use xlink:href="#MalgunGothic-32"/>
       <use xlink:href="#MalgunGothic-30" x="55.078125"/>
       <use xlink:href="#MalgunGothic-32" x="110.15625"/>
       <use xlink:href="#MalgunGothic-30" x="165.234375"/>
      </g>
     </g>
    </g>
   </g>
   <g id="matplotlib.axis_2">
    <g id="ytick_1">
     <g id="line2d_35">
      <path d="M 108 321.346702 
L 777.6 321.346702 
" clip-path="url(#pa17f18d48a)" style="fill: none; stroke: #b0b0b0; stroke-width: 0.8; stroke-linecap: square"/>
     </g>
     <g id="line2d_36">
      <defs>
       <path id="m8f4c386670" d="M 0 0 
L -3.5 0 
" style="stroke: #000000; stroke-width: 0.8"/>
      </defs>
      <g>
       <use xlink:href="#m8f4c386670" x="108" y="321.346702" style="stroke: #000000; stroke-width: 0.8"/>
      </g>
     </g>
     <g id="text_10">
      <!-- 0.010 -->
      <g transform="translate(52.5625 328.938889)scale(0.2 -0.2)">
       <defs>
        <path id="MalgunGothic-2e" d="M 356 275 
Q 356 422 459 523 
Q 563 625 700 625 
Q 838 625 941 523 
Q 1044 422 1044 275 
Q 1044 138 942 33 
Q 841 -72 700 -72 
Q 559 -72 457 29 
Q 356 131 356 275 
z
" transform="scale(0.015625)"/>
       </defs>
       <use xlink:href="#MalgunGothic-30"/>
       <use xlink:href="#MalgunGothic-2e" x="55.078125"/>
       <use xlink:href="#MalgunGothic-30" x="76.953125"/>
       <use xlink:href="#MalgunGothic-31" x="132.03125"/>
       <use xlink:href="#MalgunGothic-30" x="187.109375"/>
      </g>
     </g>
    </g>
    <g id="ytick_2">
     <g id="line2d_37">
      <path d="M 108 252.332542 
L 777.6 252.332542 
" clip-path="url(#pa17f18d48a)" style="fill: none; stroke: #b0b0b0; stroke-width: 0.8; stroke-linecap: square"/>
     </g>
     <g id="line2d_38">
      <g>
       <use xlink:href="#m8f4c386670" x="108" y="252.332542" style="stroke: #000000; stroke-width: 0.8"/>
      </g>
     </g>
     <g id="text_11">
      <!-- 0.020 -->
      <g transform="translate(52.5625 259.92473)scale(0.2 -0.2)">
       <use xlink:href="#MalgunGothic-30"/>
       <use xlink:href="#MalgunGothic-2e" x="55.078125"/>
       <use xlink:href="#MalgunGothic-30" x="76.953125"/>
       <use xlink:href="#MalgunGothic-32" x="132.03125"/>
       <use xlink:href="#MalgunGothic-30" x="187.109375"/>
      </g>
     </g>
    </g>
    <g id="ytick_3">
     <g id="line2d_39">
      <path d="M 108 183.318383 
L 777.6 183.318383 
" clip-path="url(#pa17f18d48a)" style="fill: none; stroke: #b0b0b0; stroke-width: 0.8; stroke-linecap: square"/>
     </g>
     <g id="line2d_40">
      <g>
       <use xlink:href="#m8f4c386670" x="108" y="183.318383" style="stroke: #000000; stroke-width: 0.8"/>
      </g>
     </g>
     <g id="text_12">
      <!-- 0.030 -->
      <g transform="translate(52.5625 190.910571)scale(0.2 -0.2)">
       <defs>
        <path id="MalgunGothic-33" d="M 416 719 
Q 891 344 1478 344 
Q 1959 344 2254 587 
Q 2550 831 2550 1247 
Q 2550 2169 1253 2169 
L 872 2169 
L 872 2591 
L 1234 2591 
Q 2388 2591 2388 3453 
Q 2388 4250 1509 4250 
Q 1022 4250 594 3916 
L 594 4413 
Q 1031 4675 1634 4675 
Q 2184 4675 2539 4372 
Q 2894 4069 2894 3581 
Q 2894 2678 1972 2409 
L 1972 2400 
Q 2469 2356 2764 2053 
Q 3059 1750 3059 1300 
Q 3059 672 2604 297 
Q 2150 -78 1450 -78 
Q 806 -78 416 169 
L 416 719 
z
" transform="scale(0.015625)"/>
       </defs>
       <use xlink:href="#MalgunGothic-30"/>
       <use xlink:href="#MalgunGothic-2e" x="55.078125"/>
       <use xlink:href="#MalgunGothic-30" x="76.953125"/>
       <use xlink:href="#MalgunGothic-33" x="132.03125"/>
       <use xlink:href="#MalgunGothic-30" x="187.109375"/>
      </g>
     </g>
    </g>
    <g id="ytick_4">
     <g id="line2d_41">
      <path d="M 108 114.304224 
L 777.6 114.304224 
" clip-path="url(#pa17f18d48a)" style="fill: none; stroke: #b0b0b0; stroke-width: 0.8; stroke-linecap: square"/>
     </g>
     <g id="line2d_42">
      <g>
       <use xlink:href="#m8f4c386670" x="108" y="114.304224" style="stroke: #000000; stroke-width: 0.8"/>
      </g>
     </g>
     <g id="text_13">
      <!-- 0.040 -->
      <g transform="translate(52.5625 121.896411)scale(0.2 -0.2)">
       <use xlink:href="#MalgunGothic-30"/>
       <use xlink:href="#MalgunGothic-2e" x="55.078125"/>
       <use xlink:href="#MalgunGothic-30" x="76.953125"/>
       <use xlink:href="#MalgunGothic-34" x="132.03125"/>
       <use xlink:href="#MalgunGothic-30" x="187.109375"/>
      </g>
     </g>
    </g>
    <g id="text_14">
     <!-- Probability -->
     <g transform="translate(43.728125 262.848125)rotate(-90)scale(0.2 -0.2)">
      <defs>
       <path id="MalgunGothic-50" d="M 1113 1747 
L 1113 0 
L 609 0 
L 609 4600 
L 1850 4600 
Q 2575 4600 2979 4240 
Q 3384 3881 3384 3231 
Q 3384 2559 2909 2140 
Q 2434 1722 1728 1747 
L 1113 1747 
z
M 1113 4131 
L 1113 2219 
L 1691 2219 
Q 2256 2219 2554 2475 
Q 2853 2731 2853 3206 
Q 2853 4131 1759 4131 
L 1113 4131 
z
" transform="scale(0.015625)"/>
       <path id="MalgunGothic-72" d="M 2225 2775 
Q 2084 2881 1828 2881 
Q 1491 2881 1262 2553 
Q 1034 2225 1034 1681 
L 1034 0 
L 538 0 
L 538 3284 
L 1034 3284 
L 1034 2603 
L 1047 2603 
Q 1159 2950 1389 3145 
Q 1619 3341 1903 3341 
Q 2109 3341 2225 3297 
L 2225 2775 
z
" transform="scale(0.015625)"/>
       <path id="MalgunGothic-6f" d="M 316 1600 
Q 316 2419 761 2889 
Q 1206 3359 1978 3359 
Q 2697 3359 3111 2907 
Q 3525 2456 3525 1650 
Q 3525 869 3078 395 
Q 2631 -78 1900 -78 
Q 1184 -78 750 384 
Q 316 847 316 1600 
z
M 819 1622 
Q 819 1041 1123 692 
Q 1428 344 1934 344 
Q 2459 344 2739 680 
Q 3019 1016 3019 1634 
Q 3019 2256 2737 2598 
Q 2456 2941 1934 2941 
Q 1425 2941 1122 2587 
Q 819 2234 819 1622 
z
" transform="scale(0.015625)"/>
       <path id="MalgunGothic-62" d="M 1034 481 
L 1034 0 
L 538 0 
L 538 4859 
L 1034 4859 
L 1034 2703 
L 1047 2703 
Q 1438 3359 2184 3359 
Q 2813 3359 3173 2917 
Q 3534 2475 3534 1738 
Q 3534 906 3126 414 
Q 2719 -78 2034 -78 
Q 1384 -78 1047 481 
L 1034 481 
z
M 1034 1334 
Q 1034 922 1307 633 
Q 1581 344 1991 344 
Q 2475 344 2751 716 
Q 3028 1088 3028 1753 
Q 3028 2303 2767 2622 
Q 2506 2941 2072 2941 
Q 1616 2941 1325 2616 
Q 1034 2291 1034 1803 
L 1034 1334 
z
" transform="scale(0.015625)"/>
       <path id="MalgunGothic-61" d="M 616 3050 
Q 1097 3359 1722 3359 
Q 2866 3359 2866 2147 
L 2866 0 
L 2369 0 
L 2369 516 
L 2350 516 
Q 2009 -78 1341 -78 
Q 859 -78 576 180 
Q 294 438 294 869 
Q 294 1784 1375 1934 
L 2366 2078 
Q 2366 2934 1684 2934 
Q 1084 2934 616 2525 
L 616 3050 
z
M 1563 1559 
Q 1178 1509 993 1371 
Q 809 1234 809 903 
Q 809 653 986 500 
Q 1163 347 1450 347 
Q 1847 347 2106 628 
Q 2366 909 2366 1334 
L 2366 1666 
L 1563 1559 
z
" transform="scale(0.015625)"/>
       <path id="MalgunGothic-69" d="M 472 4466 
Q 472 4606 565 4701 
Q 659 4797 794 4797 
Q 934 4797 1029 4700 
Q 1125 4603 1125 4466 
Q 1125 4325 1029 4231 
Q 934 4138 794 4138 
Q 659 4138 565 4230 
Q 472 4322 472 4466 
z
M 541 0 
L 541 3284 
L 1034 3284 
L 1034 0 
L 541 0 
z
" transform="scale(0.015625)"/>
       <path id="MalgunGothic-6c" d="M 541 0 
L 541 4859 
L 1034 4859 
L 1034 0 
L 541 0 
z
" transform="scale(0.015625)"/>
       <path id="MalgunGothic-74" d="M 2031 31 
Q 1844 -72 1553 -72 
Q 706 -72 706 881 
L 706 2856 
L 138 2856 
L 138 3284 
L 706 3284 
L 706 4091 
L 1200 4250 
L 1200 3284 
L 2031 3284 
L 2031 2856 
L 1200 2856 
L 1200 972 
Q 1200 625 1315 487 
Q 1431 350 1691 350 
Q 1888 350 2031 459 
L 2031 31 
z
" transform="scale(0.015625)"/>
       <path id="MalgunGothic-79" d="M 3119 3284 
L 1597 -544 
Q 1197 -1547 481 -1547 
Q 313 -1547 156 -1509 
L 156 -1056 
Q 316 -1109 459 -1109 
Q 859 -1109 1059 -628 
L 1328 6 
L 47 3284 
L 597 3284 
L 1503 722 
Q 1513 697 1572 488 
L 1588 488 
L 1650 716 
L 2603 3284 
L 3119 3284 
z
" transform="scale(0.015625)"/>
      </defs>
      <use xlink:href="#MalgunGothic-50"/>
      <use xlink:href="#MalgunGothic-72" x="57.080078"/>
      <use xlink:href="#MalgunGothic-6f" x="91.056641"/>
      <use xlink:href="#MalgunGothic-62" x="150.96875"/>
      <use xlink:href="#MalgunGothic-61" x="209.652344"/>
      <use xlink:href="#MalgunGothic-62" x="261.654297"/>
      <use xlink:href="#MalgunGothic-69" x="321.712891"/>
      <use xlink:href="#MalgunGothic-6c" x="346.322266"/>
      <use xlink:href="#MalgunGothic-69" x="370.931641"/>
      <use xlink:href="#MalgunGothic-74" x="395.541016"/>
      <use xlink:href="#MalgunGothic-79" x="430.013672"/>
     </g>
    </g>
   </g>
   <g id="line2d_43">
    <path d="M 108 60.956791 
L 149.85 90.308307 
L 191.7 119.510677 
L 233.55 148.226612 
L 275.4 176.118822 
L 317.25 202.850018 
L 359.1 228.082911 
L 400.95 251.480212 
L 442.8 272.70463 
L 484.65 291.418877 
L 526.5 307.285662 
L 568.35 319.967698 
L 610.2 329.127694 
L 652.05 334.42836 
L 693.9 335.532409 
L 735.75 332.102549 
L 777.6 323.801492 
" clip-path="url(#pa17f18d48a)" style="fill: none; stroke: #1f77b4; stroke-width: 4; stroke-linecap: square"/>
   </g>
   <g id="line2d_44">
    <path d="M 108 321.158364 
L 149.85 313.326521 
L 191.7 306.93265 
L 233.55 301.894169 
L 275.4 298.128496 
L 317.25 295.553048 
L 359.1 294.085244 
L 400.95 293.642501 
L 442.8 294.142237 
L 484.65 295.501869 
L 526.5 297.638816 
L 568.35 300.470495 
L 610.2 303.914324 
L 652.05 307.88772 
L 693.9 312.308102 
L 735.75 317.092887 
L 777.6 322.159494 
" clip-path="url(#pa17f18d48a)" style="fill: none; stroke: #ff7f0e; stroke-width: 4; stroke-linecap: square"/>
   </g>
   <g id="line2d_45">
    <path d="M 108 349.679518 
L 149.85 330.768378 
L 191.7 310.904498 
L 233.55 290.88232 
L 275.4 271.496287 
L 317.25 253.54084 
L 359.1 237.81042 
L 400.95 225.099469 
L 442.8 216.202429 
L 484.65 211.913741 
L 526.5 213.027848 
L 568.35 220.33919 
L 610.2 234.64221 
L 652.05 256.731349 
L 693.9 287.401049 
L 735.75 327.445751 
L 777.6 377.659897 
" clip-path="url(#pa17f18d48a)" style="fill: none; stroke: #2ca02c; stroke-width: 4; stroke-linecap: square"/>
   </g>
   <g id="line2d_46">
    <path d="M 108 333.183153 
L 149.85 326.20395 
L 191.7 320.991067 
L 233.55 317.371481 
L 275.4 315.17217 
L 317.25 314.22011 
L 359.1 314.342279 
L 400.95 315.365653 
L 442.8 317.117211 
L 484.65 319.423928 
L 526.5 322.112783 
L 568.35 325.010752 
L 610.2 327.944813 
L 652.05 330.741943 
L 693.9 333.229118 
L 735.75 335.233317 
L 777.6 336.581516 
" clip-path="url(#pa17f18d48a)" style="fill: none; stroke: #d62728; stroke-width: 4; stroke-linecap: square"/>
   </g>
   <g id="line2d_47">
    <path d="M 108 336.871325 
L 149.85 341.455871 
L 191.7 345.730385 
L 233.55 349.688796 
L 275.4 353.325029 
L 317.25 356.633011 
L 359.1 359.606671 
L 400.95 362.239935 
L 442.8 364.526729 
L 484.65 366.460982 
L 526.5 368.036619 
L 568.35 369.247569 
L 610.2 370.087758 
L 652.05 370.551113 
L 693.9 370.631561 
L 735.75 370.32303 
L 777.6 369.619446 
" clip-path="url(#pa17f18d48a)" style="fill: none; stroke: #9467bd; stroke-width: 4; stroke-linecap: square"/>
   </g>
   <g id="line2d_48">
    <path d="M 108 344.175829 
L 149.85 345.036421 
L 191.7 346.051485 
L 233.55 347.166013 
L 275.4 348.324997 
L 317.25 349.473426 
L 359.1 350.556292 
L 400.95 351.518585 
L 442.8 352.305297 
L 484.65 352.861418 
L 526.5 353.131939 
L 568.35 353.061852 
L 610.2 352.596146 
L 652.05 351.679813 
L 693.9 350.257844 
L 735.75 348.275229 
L 777.6 345.676959 
" clip-path="url(#pa17f18d48a)" style="fill: none; stroke: #8c564b; stroke-width: 4; stroke-linecap: square"/>
   </g>
   <g id="line2d_49">
    <path d="M 108 344.609844 
L 149.85 341.599016 
L 191.7 339.418732 
L 233.55 338.016096 
L 275.4 337.33821 
L 317.25 337.332175 
L 359.1 337.945095 
L 400.95 339.124071 
L 442.8 340.816207 
L 484.65 342.968605 
L 526.5 345.528367 
L 568.35 348.442595 
L 610.2 351.658392 
L 652.05 355.12286 
L 693.9 358.783102 
L 735.75 362.58622 
L 777.6 366.479317 
" clip-path="url(#pa17f18d48a)" style="fill: none; stroke: #e377c2; stroke-width: 4; stroke-linecap: square"/>
   </g>
   <g id="line2d_50">
    <path d="M 108 347.010445 
L 149.85 347.332032 
L 191.7 347.472317 
L 233.55 347.433578 
L 275.4 347.218093 
L 317.25 346.82814 
L 359.1 346.265998 
L 400.95 345.533945 
L 442.8 344.634259 
L 484.65 343.569219 
L 526.5 342.341102 
L 568.35 340.952188 
L 610.2 339.404754 
L 652.05 337.701079 
L 693.9 335.843442 
L 735.75 333.834119 
L 777.6 331.675391 
" clip-path="url(#pa17f18d48a)" style="fill: none; stroke: #7f7f7f; stroke-width: 4; stroke-linecap: square"/>
   </g>
   <g id="line2d_51">
    <path d="M 108 348.574337 
L 149.85 349.028006 
L 191.7 349.278328 
L 233.55 349.329172 
L 275.4 349.184405 
L 317.25 348.847896 
L 359.1 348.323513 
L 400.95 347.615124 
L 442.8 346.726596 
L 484.65 345.661798 
L 526.5 344.424599 
L 568.35 343.018865 
L 610.2 341.448466 
L 652.05 339.717269 
L 693.9 337.829142 
L 735.75 335.787954 
L 777.6 333.597572 
" clip-path="url(#pa17f18d48a)" style="fill: none; stroke: #bcbd22; stroke-width: 4; stroke-linecap: square"/>
   </g>
   <g id="line2d_52">
    <path d="M 108 352.306489 
L 149.85 352.691484 
L 191.7 352.969141 
L 233.55 353.170298 
L 275.4 353.325795 
L 317.25 353.466472 
L 359.1 353.623168 
L 400.95 353.826723 
L 442.8 354.107976 
L 484.65 354.497767 
L 526.5 355.026936 
L 568.35 355.726321 
L 610.2 356.626763 
L 652.05 357.759101 
L 693.9 359.154175 
L 735.75 360.842823 
L 777.6 362.855887 
" clip-path="url(#pa17f18d48a)" style="fill: none; stroke: #17becf; stroke-width: 4; stroke-linecap: square"/>
   </g>
   <g id="patch_3">
    <path d="M 108 378 
L 108 51.84 
" style="fill: none; stroke: #000000; stroke-width: 0.8; stroke-linejoin: miter; stroke-linecap: square"/>
   </g>
   <g id="patch_4">
    <path d="M 777.6 378 
L 777.6 51.84 
" style="fill: none; stroke: #000000; stroke-width: 0.8; stroke-linejoin: miter; stroke-linecap: square"/>
   </g>
   <g id="patch_5">
    <path d="M 108 378 
L 777.6 378 
" style="fill: none; stroke: #000000; stroke-width: 0.8; stroke-linejoin: miter; stroke-linecap: square"/>
   </g>
   <g id="patch_6">
    <path d="M 108 51.84 
L 777.6 51.84 
" style="fill: none; stroke: #000000; stroke-width: 0.8; stroke-linejoin: miter; stroke-linecap: square"/>
   </g>
   <g id="legend_1">
    <g id="patch_7">
     <path d="M 120.6 173.925 
L 546.825937 173.925 
Q 550.425937 173.925 550.425937 170.325 
L 550.425937 64.44 
Q 550.425937 60.84 546.825937 60.84 
L 120.6 60.84 
Q 117 60.84 117 64.44 
L 117 170.325 
Q 117 173.925 120.6 173.925 
z
" style="fill: #ffffff; opacity: 0.7; stroke: #cccccc; stroke-linejoin: miter"/>
    </g>
    <g id="line2d_53">
     <path d="M 124.2 75.405937 
L 142.2 75.405937 
L 160.2 75.405937 
" style="fill: none; stroke: #1f77b4; stroke-width: 4; stroke-linecap: square"/>
    </g>
    <g id="text_15">
     <!-- Hotel -->
     <g transform="translate(174.6 81.705937)scale(0.18 -0.18)">
      <defs>
       <path id="MalgunGothic-48" d="M 4028 0 
L 3525 0 
L 3525 2109 
L 1113 2109 
L 1113 0 
L 609 0 
L 609 4600 
L 1113 4600 
L 1113 2569 
L 3525 2569 
L 3525 4600 
L 4028 4600 
L 4028 0 
z
" transform="scale(0.015625)"/>
       <path id="MalgunGothic-65" d="M 3156 1519 
L 828 1519 
Q 844 950 1133 648 
Q 1422 347 1909 347 
Q 2472 347 2934 719 
L 2934 244 
Q 2494 -78 1794 -78 
Q 1100 -78 708 376 
Q 316 831 316 1634 
Q 316 2381 747 2870 
Q 1178 3359 1816 3359 
Q 2453 3359 2804 2942 
Q 3156 2525 3156 1788 
L 3156 1519 
z
M 2644 1956 
Q 2644 2416 2423 2675 
Q 2203 2934 1809 2934 
Q 1438 2934 1169 2667 
Q 900 2400 834 1956 
L 2644 1956 
z
" transform="scale(0.015625)"/>
      </defs>
      <use xlink:href="#MalgunGothic-48"/>
      <use xlink:href="#MalgunGothic-6f" x="72.460938"/>
      <use xlink:href="#MalgunGothic-74" x="132.373047"/>
      <use xlink:href="#MalgunGothic-65" x="165.970703"/>
      <use xlink:href="#MalgunGothic-6c" x="219.486328"/>
     </g>
    </g>
    <g id="line2d_54">
     <path d="M 124.2 102.327187 
L 142.2 102.327187 
L 160.2 102.327187 
" style="fill: none; stroke: #ff7f0e; stroke-width: 4; stroke-linecap: square"/>
    </g>
    <g id="text_16">
     <!-- Travel -->
     <g transform="translate(174.6 108.627187)scale(0.18 -0.18)">
      <defs>
       <path id="MalgunGothic-54" d="M 3294 4134 
L 1966 4134 
L 1966 0 
L 1456 0 
L 1456 4134 
L 134 4134 
L 134 4600 
L 3294 4600 
L 3294 4134 
z
" transform="scale(0.015625)"/>
       <path id="MalgunGothic-76" d="M 3084 3284 
L 1769 0 
L 1294 0 
L 47 3284 
L 594 3284 
L 1441 872 
Q 1531 609 1556 425 
L 1572 425 
Q 1603 669 1672 863 
L 2563 3284 
L 3084 3284 
z
" transform="scale(0.015625)"/>
      </defs>
      <use xlink:href="#MalgunGothic-54"/>
      <use xlink:href="#MalgunGothic-72" x="43.994141"/>
      <use xlink:href="#MalgunGothic-61" x="79.345703"/>
      <use xlink:href="#MalgunGothic-76" x="131.347656"/>
      <use xlink:href="#MalgunGothic-65" x="179.453125"/>
      <use xlink:href="#MalgunGothic-6c" x="232.96875"/>
     </g>
    </g>
    <g id="line2d_55">
     <path d="M 124.2 129.248437 
L 142.2 129.248437 
L 160.2 129.248437 
" style="fill: none; stroke: #2ca02c; stroke-width: 4; stroke-linecap: square"/>
    </g>
    <g id="text_17">
     <!-- Pension -->
     <g transform="translate(174.6 135.548437)scale(0.18 -0.18)">
      <defs>
       <path id="MalgunGothic-6e" d="M 3238 0 
L 2741 0 
L 2741 1875 
Q 2741 2941 1963 2941 
Q 1563 2941 1298 2639 
Q 1034 2338 1034 1872 
L 1034 0 
L 538 0 
L 538 3284 
L 1034 3284 
L 1034 2734 
L 1047 2734 
Q 1416 3359 2125 3359 
Q 2666 3359 2952 3012 
Q 3238 2666 3238 2006 
L 3238 0 
z
" transform="scale(0.015625)"/>
       <path id="MalgunGothic-73" d="M 331 669 
Q 763 350 1278 350 
Q 1978 350 1978 822 
Q 1978 1025 1825 1158 
Q 1672 1291 1222 1459 
Q 703 1666 520 1878 
Q 338 2091 338 2416 
Q 338 2834 700 3096 
Q 1063 3359 1584 3359 
Q 2003 3359 2341 3213 
L 2341 2697 
Q 1975 2934 1506 2934 
Q 1200 2934 1025 2798 
Q 850 2663 850 2459 
Q 850 2241 979 2125 
Q 1109 2009 1544 1838 
Q 2131 1609 2309 1390 
Q 2488 1172 2488 869 
Q 2488 431 2127 176 
Q 1766 -78 1203 -78 
Q 694 -78 331 122 
L 331 669 
z
" transform="scale(0.015625)"/>
      </defs>
      <use xlink:href="#MalgunGothic-50"/>
      <use xlink:href="#MalgunGothic-65" x="53.080078"/>
      <use xlink:href="#MalgunGothic-6e" x="106.595703"/>
      <use xlink:href="#MalgunGothic-73" x="164.408203"/>
      <use xlink:href="#MalgunGothic-69" x="207.71875"/>
      <use xlink:href="#MalgunGothic-6f" x="232.328125"/>
      <use xlink:href="#MalgunGothic-6e" x="292.240234"/>
     </g>
    </g>
    <g id="line2d_56">
     <path d="M 124.2 156.169687 
L 142.2 156.169687 
L 160.2 156.169687 
" style="fill: none; stroke: #d62728; stroke-width: 4; stroke-linecap: square"/>
    </g>
    <g id="text_18">
     <!-- Coffee -->
     <g transform="translate(174.6 162.469687)scale(0.18 -0.18)">
      <defs>
       <path id="MalgunGothic-43" d="M 3725 197 
Q 3216 -78 2459 -78 
Q 1488 -78 897 561 
Q 306 1200 306 2213 
Q 306 3281 959 3978 
Q 1613 4675 2644 4675 
Q 3297 4675 3725 4484 
L 3725 3941 
Q 3234 4213 2634 4213 
Q 1813 4213 1325 3659 
Q 838 3106 838 2241 
Q 838 1413 1297 897 
Q 1756 381 2522 381 
Q 3216 381 3725 688 
L 3725 197 
z
" transform="scale(0.015625)"/>
       <path id="MalgunGothic-66" d="M 2128 4422 
Q 1975 4506 1778 4506 
Q 1222 4506 1222 3800 
L 1222 3284 
L 1991 3284 
L 1991 2856 
L 1222 2856 
L 1222 0 
L 734 0 
L 734 2856 
L 172 2856 
L 172 3284 
L 734 3284 
L 734 3825 
Q 734 4341 1026 4636 
Q 1319 4931 1753 4931 
Q 1994 4931 2128 4875 
L 2128 4422 
z
" transform="scale(0.015625)"/>
      </defs>
      <use xlink:href="#MalgunGothic-43"/>
      <use xlink:href="#MalgunGothic-6f" x="63.476562"/>
      <use xlink:href="#MalgunGothic-66" x="121.388672"/>
      <use xlink:href="#MalgunGothic-66" x="153.029297"/>
      <use xlink:href="#MalgunGothic-65" x="184.669922"/>
      <use xlink:href="#MalgunGothic-65" x="238.185547"/>
     </g>
    </g>
    <g id="line2d_57">
     <path d="M 273.608437 75.405937 
L 291.608437 75.405937 
L 309.608437 75.405937 
" style="fill: none; stroke: #9467bd; stroke-width: 4; stroke-linecap: square"/>
    </g>
    <g id="text_19">
     <!-- Bomun -->
     <g transform="translate(324.008437 81.705937)scale(0.18 -0.18)">
      <defs>
       <path id="MalgunGothic-42" d="M 609 0 
L 609 4600 
L 1894 4600 
Q 2466 4600 2817 4311 
Q 3169 4022 3169 3547 
Q 3169 3166 2961 2870 
Q 2753 2575 2378 2453 
L 2378 2441 
Q 2844 2391 3122 2089 
Q 3400 1788 3400 1319 
Q 3400 731 2978 365 
Q 2556 0 1919 0 
L 609 0 
z
M 1113 4128 
L 1113 2619 
L 1672 2619 
Q 2134 2619 2387 2839 
Q 2641 3059 2641 3447 
Q 2641 4128 1750 4128 
L 1113 4128 
z
M 1113 2153 
L 1113 469 
L 1859 469 
Q 2334 469 2603 698 
Q 2872 928 2872 1325 
Q 2872 2153 1738 2153 
L 1113 2153 
z
" transform="scale(0.015625)"/>
       <path id="MalgunGothic-6d" d="M 5166 0 
L 4669 0 
L 4669 1884 
Q 4669 2463 4495 2702 
Q 4322 2941 3922 2941 
Q 3584 2941 3342 2623 
Q 3100 2306 3100 1875 
L 3100 0 
L 2606 0 
L 2606 1953 
Q 2606 2941 1844 2941 
Q 1497 2941 1265 2642 
Q 1034 2344 1034 1875 
L 1034 0 
L 538 0 
L 538 3284 
L 1034 3284 
L 1034 2763 
L 1047 2763 
Q 1391 3359 2063 3359 
Q 2381 3359 2636 3176 
Q 2891 2994 2991 2675 
Q 3356 3359 4081 3359 
Q 5166 3359 5166 2022 
L 5166 0 
z
" transform="scale(0.015625)"/>
       <path id="MalgunGothic-75" d="M 3166 0 
L 2669 0 
L 2669 519 
L 2656 519 
Q 2331 -78 1644 -78 
Q 469 -78 469 1322 
L 469 3284 
L 959 3284 
L 959 1403 
Q 959 344 1766 344 
Q 2159 344 2414 636 
Q 2669 928 2669 1394 
L 2669 3284 
L 3166 3284 
L 3166 0 
z
" transform="scale(0.015625)"/>
      </defs>
      <use xlink:href="#MalgunGothic-42"/>
      <use xlink:href="#MalgunGothic-6f" x="58.349609"/>
      <use xlink:href="#MalgunGothic-6d" x="118.261719"/>
      <use xlink:href="#MalgunGothic-75" x="206.25"/>
      <use xlink:href="#MalgunGothic-6e" x="264.0625"/>
     </g>
    </g>
    <g id="line2d_58">
     <path d="M 273.608437 102.327187 
L 291.608437 102.327187 
L 309.608437 102.327187 
" style="fill: none; stroke: #8c564b; stroke-width: 4; stroke-linecap: square"/>
    </g>
    <g id="text_20">
     <!-- Utilization -->
     <g transform="translate(324.008437 108.627187)scale(0.18 -0.18)">
      <defs>
       <path id="MalgunGothic-55" d="M 3947 1850 
Q 3947 -78 2209 -78 
Q 553 -78 553 1778 
L 553 4600 
L 1056 4600 
L 1056 1813 
Q 1056 381 2272 381 
Q 3441 381 3441 1763 
L 3441 4600 
L 3947 4600 
L 3947 1850 
z
" transform="scale(0.015625)"/>
       <path id="MalgunGothic-7a" d="M 2788 0 
L 109 0 
L 109 147 
L 2069 2856 
L 291 2856 
L 291 3284 
L 2809 3284 
L 2809 3156 
L 841 428 
L 2788 428 
L 2788 0 
z
" transform="scale(0.015625)"/>
      </defs>
      <use xlink:href="#MalgunGothic-55"/>
      <use xlink:href="#MalgunGothic-74" x="70.263672"/>
      <use xlink:href="#MalgunGothic-69" x="104.736328"/>
      <use xlink:href="#MalgunGothic-6c" x="129.345703"/>
      <use xlink:href="#MalgunGothic-69" x="153.955078"/>
      <use xlink:href="#MalgunGothic-7a" x="178.564453"/>
      <use xlink:href="#MalgunGothic-61" x="224.755859"/>
      <use xlink:href="#MalgunGothic-74" x="276.757812"/>
      <use xlink:href="#MalgunGothic-69" x="311.230469"/>
      <use xlink:href="#MalgunGothic-6f" x="335.839844"/>
      <use xlink:href="#MalgunGothic-6e" x="395.751953"/>
     </g>
    </g>
    <g id="line2d_59">
     <path d="M 273.608437 129.248437 
L 291.608437 129.248437 
L 309.608437 129.248437 
" style="fill: none; stroke: #e377c2; stroke-width: 4; stroke-linecap: square"/>
    </g>
    <g id="text_21">
     <!-- Morning -->
     <g transform="translate(324.008437 135.548437)scale(0.18 -0.18)">
      <defs>
       <path id="MalgunGothic-4d" d="M 4756 0 
L 4756 3106 
Q 4756 3466 4803 3994 
L 4788 3994 
Q 4713 3684 4653 3559 
L 3050 0 
L 2822 0 
L 1222 3534 
Q 1159 3669 1091 3994 
L 1075 3994 
Q 1100 3822 1100 3116 
L 1100 0 
L 609 0 
L 609 4600 
L 1269 4600 
L 2706 1359 
Q 2881 966 2922 816 
L 2941 816 
Q 2988 944 3166 1375 
L 4638 4600 
L 5259 4600 
L 5259 0 
L 4756 0 
z
" transform="scale(0.015625)"/>
       <path id="MalgunGothic-67" d="M 3313 259 
Q 3313 -1547 1603 -1547 
Q 1003 -1547 538 -1313 
L 538 -806 
Q 1088 -1116 1600 -1116 
Q 2822 -1116 2822 194 
L 2822 559 
L 2809 559 
Q 2422 -78 1675 -78 
Q 1066 -78 691 362 
Q 316 803 316 1534 
Q 316 2375 722 2867 
Q 1128 3359 1816 3359 
Q 2484 3359 2809 2822 
L 2822 2822 
L 2822 3284 
L 3313 3284 
L 3313 259 
z
M 2822 1978 
Q 2822 2378 2547 2659 
Q 2272 2941 1878 2941 
Q 1384 2941 1101 2577 
Q 819 2213 819 1572 
Q 819 1016 1092 680 
Q 1366 344 1803 344 
Q 2247 344 2534 666 
Q 2822 988 2822 1478 
L 2822 1978 
z
" transform="scale(0.015625)"/>
      </defs>
      <use xlink:href="#MalgunGothic-4d"/>
      <use xlink:href="#MalgunGothic-6f" x="91.699219"/>
      <use xlink:href="#MalgunGothic-72" x="151.611328"/>
      <use xlink:href="#MalgunGothic-6e" x="186.712891"/>
      <use xlink:href="#MalgunGothic-69" x="244.525391"/>
      <use xlink:href="#MalgunGothic-6e" x="269.134766"/>
      <use xlink:href="#MalgunGothic-67" x="326.947266"/>
     </g>
    </g>
    <g id="line2d_60">
     <path d="M 441.646875 75.405937 
L 459.646875 75.405937 
L 477.646875 75.405937 
" style="fill: none; stroke: #7f7f7f; stroke-width: 4; stroke-linecap: square"/>
    </g>
    <g id="text_22">
     <!-- Time -->
     <g transform="translate(492.046875 81.705937)scale(0.18 -0.18)">
      <use xlink:href="#MalgunGothic-54"/>
      <use xlink:href="#MalgunGothic-69" x="53.369141"/>
      <use xlink:href="#MalgunGothic-6d" x="77.978516"/>
      <use xlink:href="#MalgunGothic-65" x="165.966797"/>
     </g>
    </g>
    <g id="line2d_61">
     <path d="M 441.646875 102.327187 
L 459.646875 102.327187 
L 477.646875 102.327187 
" style="fill: none; stroke: #bcbd22; stroke-width: 4; stroke-linecap: square"/>
    </g>
    <g id="text_23">
     <!-- Photo -->
     <g transform="translate(492.046875 108.627187)scale(0.18 -0.18)">
      <defs>
       <path id="MalgunGothic-68" d="M 3238 0 
L 2744 0 
L 2744 1894 
Q 2744 2941 1963 2941 
Q 1572 2941 1303 2637 
Q 1034 2334 1034 1859 
L 1034 0 
L 538 0 
L 538 4859 
L 1034 4859 
L 1034 2734 
L 1047 2734 
Q 1425 3359 2128 3359 
Q 3238 3359 3238 2022 
L 3238 0 
z
" transform="scale(0.015625)"/>
      </defs>
      <use xlink:href="#MalgunGothic-50"/>
      <use xlink:href="#MalgunGothic-68" x="57.080078"/>
      <use xlink:href="#MalgunGothic-6f" x="114.941406"/>
      <use xlink:href="#MalgunGothic-74" x="174.853516"/>
      <use xlink:href="#MalgunGothic-6f" x="208.451172"/>
     </g>
    </g>
    <g id="line2d_62">
     <path d="M 441.646875 129.248437 
L 459.646875 129.248437 
L 477.646875 129.248437 
" style="fill: none; stroke: #17becf; stroke-width: 4; stroke-linecap: square"/>
    </g>
    <g id="text_24">
     <!-- Family -->
     <g transform="translate(492.046875 135.548437)scale(0.18 -0.18)">
      <defs>
       <path id="MalgunGothic-46" d="M 2922 4134 
L 1113 4134 
L 1113 2516 
L 2788 2516 
L 2788 2050 
L 1113 2050 
L 1113 0 
L 609 0 
L 609 4600 
L 2922 4600 
L 2922 4134 
z
" transform="scale(0.015625)"/>
      </defs>
      <use xlink:href="#MalgunGothic-46"/>
      <use xlink:href="#MalgunGothic-61" x="45.853516"/>
      <use xlink:href="#MalgunGothic-6d" x="97.855469"/>
      <use xlink:href="#MalgunGothic-69" x="185.84375"/>
      <use xlink:href="#MalgunGothic-6c" x="210.453125"/>
      <use xlink:href="#MalgunGothic-79" x="235.0625"/>
     </g>
    </g>
   </g>
  </g>
 </g>
 <defs>
  <clipPath id="pa17f18d48a">
   <rect x="108" y="51.84" width="669.6" height="326.16"/>
  </clipPath>
 </defs>
</svg>
